solid [c]_front_logic_lens_x2
   facet normal 0.000000e+00 1.000000e+00 0.000000e+00
      outer loop
         vertex 3.852333e+01 1.719000e+01 1.438658e+02
         vertex 3.842974e+01 1.719000e+01 1.428702e+02
         vertex 3.466645e+01 1.719000e+01 1.441763e+02
      endloop
   endfacet
   facet normal 0.000000e+00 1.000000e+00 0.000000e+00
      outer loop
         vertex 3.466645e+01 1.719000e+01 1.441763e+02
         vertex 3.842974e+01 1.719000e+01 1.428702e+02
         vertex 3.569522e+01 1.719000e+01 1.431009e+02
      endloop
   endfacet
   facet normal 0.000000e+00 1.000000e+00 0.000000e+00
      outer loop
         vertex 3.466645e+01 1.719000e+01 1.441763e+02
         vertex 3.569522e+01 1.719000e+01 1.431009e+02
         vertex 3.080264e+01 1.719000e+01 1.443834e+02
      endloop
   endfacet
   facet normal 0.000000e+00 1.000000e+00 0.000000e+00
      outer loop
         vertex 3.080264e+01 1.719000e+01 1.443834e+02
         vertex 3.569522e+01 1.719000e+01 1.431009e+02
         vertex 3.213382e+01 1.719000e+01 1.433226e+02
      endloop
   endfacet
   facet normal 0.000000e+00 1.000000e+00 0.000000e+00
      outer loop
         vertex 3.080264e+01 1.719000e+01 1.443834e+02
         vertex 3.213382e+01 1.719000e+01 1.433226e+02
         vertex 2.693468e+01 1.719000e+01 1.444871e+02
      endloop
   endfacet
   facet normal 0.000000e+00 1.000000e+00 0.000000e+00
      outer loop
         vertex 2.693468e+01 1.719000e+01 1.444871e+02
         vertex 3.213382e+01 1.719000e+01 1.433226e+02
         vertex 2.856801e+01 1.719000e+01 1.434556e+02
      endloop
   endfacet
   facet normal 0.000000e+00 1.000000e+00 0.000000e+00
      outer loop
         vertex 2.693468e+01 1.719000e+01 1.444871e+02
         vertex 2.856801e+01 1.719000e+01 1.434556e+02
         vertex 2.306532e+01 1.719000e+01 1.444871e+02
      endloop
   endfacet
   facet normal 0.000000e+00 1.000000e+00 -0.000000e+00
      outer loop
         vertex 1.157026e+01 1.719000e+01 1.428702e+02
         vertex 1.147668e+01 1.719000e+01 1.438658e+02
         vertex 1.430478e+01 1.719000e+01 1.431009e+02
      endloop
   endfacet
   facet normal 0.000000e+00 1.000000e+00 -0.000000e+00
      outer loop
         vertex 1.430478e+01 1.719000e+01 1.431009e+02
         vertex 1.147668e+01 1.719000e+01 1.438658e+02
         vertex 1.533355e+01 1.719000e+01 1.441763e+02
      endloop
   endfacet
   facet normal 0.000000e+00 1.000000e+00 0.000000e+00
      outer loop
         vertex 1.430478e+01 1.719000e+01 1.431009e+02
         vertex 1.533355e+01 1.719000e+01 1.441763e+02
         vertex 1.786618e+01 1.719000e+01 1.433226e+02
      endloop
   endfacet
   facet normal 0.000000e+00 1.000000e+00 -0.000000e+00
      outer loop
         vertex 1.786618e+01 1.719000e+01 1.433226e+02
         vertex 1.533355e+01 1.719000e+01 1.441763e+02
         vertex 1.919736e+01 1.719000e+01 1.443834e+02
      endloop
   endfacet
   facet normal 0.000000e+00 1.000000e+00 0.000000e+00
      outer loop
         vertex 1.786618e+01 1.719000e+01 1.433226e+02
         vertex 1.919736e+01 1.719000e+01 1.443834e+02
         vertex 2.143199e+01 1.719000e+01 1.434556e+02
      endloop
   endfacet
   facet normal 0.000000e+00 1.000000e+00 -0.000000e+00
      outer loop
         vertex 2.143199e+01 1.719000e+01 1.434556e+02
         vertex 1.919736e+01 1.719000e+01 1.443834e+02
         vertex 2.306532e+01 1.719000e+01 1.444871e+02
      endloop
   endfacet
   facet normal 0.000000e+00 1.000000e+00 0.000000e+00
      outer loop
         vertex 2.143199e+01 1.719000e+01 1.434556e+02
         vertex 2.306532e+01 1.719000e+01 1.444871e+02
         vertex 2.500000e+01 1.719000e+01 1.435000e+02
      endloop
   endfacet
   facet normal -0.000000e+00 1.000000e+00 -0.000000e+00
      outer loop
         vertex 2.500000e+01 1.719000e+01 1.435000e+02
         vertex 2.306532e+01 1.719000e+01 1.444871e+02
         vertex 2.856801e+01 1.719000e+01 1.434556e+02
      endloop
   endfacet
   facet normal 0.000000e+00 -1.000000e+00 0.000000e+00
      outer loop
         vertex 1.147668e+01 1.219000e+01 1.438658e+02
         vertex 1.157026e+01 1.219000e+01 1.428702e+02
         vertex 1.533355e+01 1.219000e+01 1.441763e+02
      endloop
   endfacet
   facet normal 0.000000e+00 -1.000000e+00 0.000000e+00
      outer loop
         vertex 1.533355e+01 1.219000e+01 1.441763e+02
         vertex 1.157026e+01 1.219000e+01 1.428702e+02
         vertex 1.430478e+01 1.219000e+01 1.431009e+02
      endloop
   endfacet
   facet normal 0.000000e+00 -1.000000e+00 -0.000000e+00
      outer loop
         vertex 1.533355e+01 1.219000e+01 1.441763e+02
         vertex 1.430478e+01 1.219000e+01 1.431009e+02
         vertex 1.919736e+01 1.219000e+01 1.443834e+02
      endloop
   endfacet
   facet normal 0.000000e+00 -1.000000e+00 0.000000e+00
      outer loop
         vertex 1.919736e+01 1.219000e+01 1.443834e+02
         vertex 1.430478e+01 1.219000e+01 1.431009e+02
         vertex 1.786618e+01 1.219000e+01 1.433226e+02
      endloop
   endfacet
   facet normal 0.000000e+00 -1.000000e+00 -0.000000e+00
      outer loop
         vertex 1.919736e+01 1.219000e+01 1.443834e+02
         vertex 1.786618e+01 1.219000e+01 1.433226e+02
         vertex 2.306532e+01 1.219000e+01 1.444871e+02
      endloop
   endfacet
   facet normal 0.000000e+00 -1.000000e+00 0.000000e+00
      outer loop
         vertex 3.842974e+01 1.219000e+01 1.428702e+02
         vertex 3.852333e+01 1.219000e+01 1.438658e+02
         vertex 3.569522e+01 1.219000e+01 1.431009e+02
      endloop
   endfacet
   facet normal 0.000000e+00 -1.000000e+00 0.000000e+00
      outer loop
         vertex 3.569522e+01 1.219000e+01 1.431009e+02
         vertex 3.852333e+01 1.219000e+01 1.438658e+02
         vertex 3.466645e+01 1.219000e+01 1.441763e+02
      endloop
   endfacet
   facet normal 0.000000e+00 -1.000000e+00 0.000000e+00
      outer loop
         vertex 3.569522e+01 1.219000e+01 1.431009e+02
         vertex 3.466645e+01 1.219000e+01 1.441763e+02
         vertex 3.213382e+01 1.219000e+01 1.433226e+02
      endloop
   endfacet
   facet normal 0.000000e+00 -1.000000e+00 0.000000e+00
      outer loop
         vertex 3.213382e+01 1.219000e+01 1.433226e+02
         vertex 3.466645e+01 1.219000e+01 1.441763e+02
         vertex 3.080264e+01 1.219000e+01 1.443834e+02
      endloop
   endfacet
   facet normal 0.000000e+00 -1.000000e+00 0.000000e+00
      outer loop
         vertex 3.213382e+01 1.219000e+01 1.433226e+02
         vertex 3.080264e+01 1.219000e+01 1.443834e+02
         vertex 2.856801e+01 1.219000e+01 1.434556e+02
      endloop
   endfacet
   facet normal 0.000000e+00 -1.000000e+00 0.000000e+00
      outer loop
         vertex 2.856801e+01 1.219000e+01 1.434556e+02
         vertex 3.080264e+01 1.219000e+01 1.443834e+02
         vertex 2.693468e+01 1.219000e+01 1.444871e+02
      endloop
   endfacet
   facet normal 0.000000e+00 -1.000000e+00 0.000000e+00
      outer loop
         vertex 2.856801e+01 1.219000e+01 1.434556e+02
         vertex 2.693468e+01 1.219000e+01 1.444871e+02
         vertex 2.500000e+01 1.219000e+01 1.435000e+02
      endloop
   endfacet
   facet normal 0.000000e+00 -1.000000e+00 0.000000e+00
      outer loop
         vertex 2.500000e+01 1.219000e+01 1.435000e+02
         vertex 2.693468e+01 1.219000e+01 1.444871e+02
         vertex 2.306532e+01 1.219000e+01 1.444871e+02
      endloop
   endfacet
   facet normal -0.000000e+00 -1.000000e+00 0.000000e+00
      outer loop
         vertex 2.500000e+01 1.219000e+01 1.435000e+02
         vertex 2.306532e+01 1.219000e+01 1.444871e+02
         vertex 2.143199e+01 1.219000e+01 1.434556e+02
      endloop
   endfacet
   facet normal -0.000000e+00 -1.000000e+00 0.000000e+00
      outer loop
         vertex 2.143199e+01 1.219000e+01 1.434556e+02
         vertex 2.306532e+01 1.219000e+01 1.444871e+02
         vertex 1.786618e+01 1.219000e+01 1.433226e+02
      endloop
   endfacet
   facet normal 9.956112e-01 0.000000e+00 -9.358582e-02
      outer loop
         vertex 3.842974e+01 1.719000e+01 1.428702e+02
         vertex 3.852333e+01 1.719000e+01 1.438658e+02
         vertex 3.842974e+01 1.219000e+01 1.428702e+02
      endloop
   endfacet
   facet normal 9.956112e-01 0.000000e+00 -9.358582e-02
      outer loop
         vertex 3.842974e+01 1.219000e+01 1.428702e+02
         vertex 3.852333e+01 1.719000e+01 1.438658e+02
         vertex 3.852333e+01 1.219000e+01 1.438658e+02
      endloop
   endfacet
   facet normal 1.000000e+00 0.000000e+00 0.000000e+00
      outer loop
         vertex 3.925000e+01 1.199000e+01 1.377907e+02
         vertex 3.925000e+01 1.739000e+01 1.377907e+02
         vertex 3.925000e+01 1.199000e+01 1.427907e+02
      endloop
   endfacet
   facet normal 1.000000e+00 -0.000000e+00 0.000000e+00
      outer loop
         vertex 3.925000e+01 1.199000e+01 1.427907e+02
         vertex 3.925000e+01 1.739000e+01 1.377907e+02
         vertex 3.925000e+01 1.739000e+01 1.427907e+02
      endloop
   endfacet
   facet normal 0.000000e+00 0.000000e+00 -1.000000e+00
      outer loop
         vertex 1.075000e+01 1.199000e+01 1.377907e+02
         vertex 1.075000e+01 1.739000e+01 1.377907e+02
         vertex 3.925000e+01 1.199000e+01 1.377907e+02
      endloop
   endfacet
   facet normal 0.000000e+00 0.000000e+00 -1.000000e+00
      outer loop
         vertex 3.925000e+01 1.199000e+01 1.377907e+02
         vertex 1.075000e+01 1.739000e+01 1.377907e+02
         vertex 3.925000e+01 1.739000e+01 1.377907e+02
      endloop
   endfacet
   facet normal -1.000000e+00 0.000000e+00 0.000000e+00
      outer loop
         vertex 1.075000e+01 1.199000e+01 1.427907e+02
         vertex 1.075000e+01 1.739000e+01 1.427907e+02
         vertex 1.075000e+01 1.199000e+01 1.377907e+02
      endloop
   endfacet
   facet normal -1.000000e+00 0.000000e+00 0.000000e+00
      outer loop
         vertex 1.075000e+01 1.199000e+01 1.377907e+02
         vertex 1.075000e+01 1.739000e+01 1.427907e+02
         vertex 1.075000e+01 1.739000e+01 1.377907e+02
      endloop
   endfacet
   facet normal -9.644760e-02 0.000000e+00 9.953381e-01
      outer loop
         vertex 1.157026e+01 1.219000e+01 1.428702e+02
         vertex 1.157026e+01 1.719000e+01 1.428702e+02
         vertex 1.075000e+01 1.739000e+01 1.427907e+02
      endloop
   endfacet
   facet normal -8.686014e-02 3.936274e-02 9.954426e-01
      outer loop
         vertex 1.075000e+01 1.739000e+01 1.427907e+02
         vertex 1.157026e+01 1.719000e+01 1.428702e+02
         vertex 1.430478e+01 1.739000e+01 1.431009e+02
      endloop
   endfacet
   facet normal -9.644760e-02 0.000000e+00 9.953381e-01
      outer loop
         vertex 1.075000e+01 1.739000e+01 1.427907e+02
         vertex 1.075000e+01 1.199000e+01 1.427907e+02
         vertex 1.157026e+01 1.219000e+01 1.428702e+02
      endloop
   endfacet
   facet normal -8.686014e-02 -3.936255e-02 9.954426e-01
      outer loop
         vertex 1.157026e+01 1.219000e+01 1.428702e+02
         vertex 1.075000e+01 1.199000e+01 1.427907e+02
         vertex 1.430478e+01 1.199000e+01 1.431009e+02
      endloop
   endfacet
   facet normal -8.406704e-02 0.000000e+00 9.964601e-01
      outer loop
         vertex 1.157026e+01 1.219000e+01 1.428702e+02
         vertex 1.430478e+01 1.199000e+01 1.431009e+02
         vertex 1.430478e+01 1.219000e+01 1.431009e+02
      endloop
   endfacet
   facet normal -6.212629e-02 0.000000e+00 9.980683e-01
      outer loop
         vertex 1.430478e+01 1.219000e+01 1.431009e+02
         vertex 1.430478e+01 1.199000e+01 1.431009e+02
         vertex 1.786618e+01 1.199000e+01 1.433226e+02
      endloop
   endfacet
   facet normal -6.212629e-02 0.000000e+00 9.980683e-01
      outer loop
         vertex 1.430478e+01 1.219000e+01 1.431009e+02
         vertex 1.786618e+01 1.199000e+01 1.433226e+02
         vertex 1.786618e+01 1.219000e+01 1.433226e+02
      endloop
   endfacet
   facet normal -3.729164e-02 0.000000e+00 9.993044e-01
      outer loop
         vertex 1.786618e+01 1.219000e+01 1.433226e+02
         vertex 1.786618e+01 1.199000e+01 1.433226e+02
         vertex 2.143199e+01 1.199000e+01 1.434556e+02
      endloop
   endfacet
   facet normal -3.729164e-02 0.000000e+00 9.993044e-01
      outer loop
         vertex 1.786618e+01 1.219000e+01 1.433226e+02
         vertex 2.143199e+01 1.199000e+01 1.434556e+02
         vertex 2.143199e+01 1.219000e+01 1.434556e+02
      endloop
   endfacet
   facet normal -1.243194e-02 0.000000e+00 9.999227e-01
      outer loop
         vertex 2.143199e+01 1.219000e+01 1.434556e+02
         vertex 2.143199e+01 1.199000e+01 1.434556e+02
         vertex 2.500000e+01 1.199000e+01 1.435000e+02
      endloop
   endfacet
   facet normal -1.243194e-02 0.000000e+00 9.999227e-01
      outer loop
         vertex 2.143199e+01 1.219000e+01 1.434556e+02
         vertex 2.500000e+01 1.199000e+01 1.435000e+02
         vertex 2.500000e+01 1.219000e+01 1.435000e+02
      endloop
   endfacet
   facet normal 1.243194e-02 0.000000e+00 9.999227e-01
      outer loop
         vertex 2.500000e+01 1.219000e+01 1.435000e+02
         vertex 2.500000e+01 1.199000e+01 1.435000e+02
         vertex 2.856801e+01 1.199000e+01 1.434556e+02
      endloop
   endfacet
   facet normal 1.243194e-02 0.000000e+00 9.999227e-01
      outer loop
         vertex 2.500000e+01 1.219000e+01 1.435000e+02
         vertex 2.856801e+01 1.199000e+01 1.434556e+02
         vertex 2.856801e+01 1.219000e+01 1.434556e+02
      endloop
   endfacet
   facet normal 3.729164e-02 0.000000e+00 9.993044e-01
      outer loop
         vertex 2.856801e+01 1.219000e+01 1.434556e+02
         vertex 2.856801e+01 1.199000e+01 1.434556e+02
         vertex 3.213382e+01 1.199000e+01 1.433226e+02
      endloop
   endfacet
   facet normal 3.729164e-02 0.000000e+00 9.993044e-01
      outer loop
         vertex 2.856801e+01 1.219000e+01 1.434556e+02
         vertex 3.213382e+01 1.199000e+01 1.433226e+02
         vertex 3.213382e+01 1.219000e+01 1.433226e+02
      endloop
   endfacet
   facet normal 6.212629e-02 0.000000e+00 9.980683e-01
      outer loop
         vertex 3.213382e+01 1.219000e+01 1.433226e+02
         vertex 3.213382e+01 1.199000e+01 1.433226e+02
         vertex 3.569522e+01 1.199000e+01 1.431009e+02
      endloop
   endfacet
   facet normal 6.212629e-02 0.000000e+00 9.980683e-01
      outer loop
         vertex 3.213382e+01 1.219000e+01 1.433226e+02
         vertex 3.569522e+01 1.199000e+01 1.431009e+02
         vertex 3.569522e+01 1.219000e+01 1.431009e+02
      endloop
   endfacet
   facet normal 8.406704e-02 0.000000e+00 9.964601e-01
      outer loop
         vertex 3.569522e+01 1.219000e+01 1.431009e+02
         vertex 3.569522e+01 1.199000e+01 1.431009e+02
         vertex 3.842974e+01 1.219000e+01 1.428702e+02
      endloop
   endfacet
   facet normal 8.686014e-02 -3.936255e-02 9.954426e-01
      outer loop
         vertex 3.842974e+01 1.219000e+01 1.428702e+02
         vertex 3.569522e+01 1.199000e+01 1.431009e+02
         vertex 3.925000e+01 1.199000e+01 1.427907e+02
      endloop
   endfacet
   facet normal 9.644760e-02 -0.000000e+00 9.953381e-01
      outer loop
         vertex 3.842974e+01 1.219000e+01 1.428702e+02
         vertex 3.925000e+01 1.199000e+01 1.427907e+02
         vertex 3.842974e+01 1.719000e+01 1.428702e+02
      endloop
   endfacet
   facet normal 9.644760e-02 -0.000000e+00 9.953381e-01
      outer loop
         vertex 3.925000e+01 1.199000e+01 1.427907e+02
         vertex 3.925000e+01 1.739000e+01 1.427907e+02
         vertex 3.842974e+01 1.719000e+01 1.428702e+02
      endloop
   endfacet
   facet normal 8.686014e-02 3.936274e-02 9.954426e-01
      outer loop
         vertex 3.842974e+01 1.719000e+01 1.428702e+02
         vertex 3.925000e+01 1.739000e+01 1.427907e+02
         vertex 3.569522e+01 1.739000e+01 1.431009e+02
      endloop
   endfacet
   facet normal 8.406704e-02 0.000000e+00 9.964601e-01
      outer loop
         vertex 3.842974e+01 1.719000e+01 1.428702e+02
         vertex 3.569522e+01 1.739000e+01 1.431009e+02
         vertex 3.569522e+01 1.719000e+01 1.431009e+02
      endloop
   endfacet
   facet normal 6.212629e-02 -0.000000e+00 9.980683e-01
      outer loop
         vertex 3.569522e+01 1.719000e+01 1.431009e+02
         vertex 3.569522e+01 1.739000e+01 1.431009e+02
         vertex 3.213382e+01 1.739000e+01 1.433226e+02
      endloop
   endfacet
   facet normal 6.212629e-02 0.000000e+00 9.980683e-01
      outer loop
         vertex 3.569522e+01 1.719000e+01 1.431009e+02
         vertex 3.213382e+01 1.739000e+01 1.433226e+02
         vertex 3.213382e+01 1.719000e+01 1.433226e+02
      endloop
   endfacet
   facet normal 3.729164e-02 -0.000000e+00 9.993044e-01
      outer loop
         vertex 3.213382e+01 1.719000e+01 1.433226e+02
         vertex 3.213382e+01 1.739000e+01 1.433226e+02
         vertex 2.856801e+01 1.739000e+01 1.434556e+02
      endloop
   endfacet
   facet normal 3.729164e-02 0.000000e+00 9.993044e-01
      outer loop
         vertex 3.213382e+01 1.719000e+01 1.433226e+02
         vertex 2.856801e+01 1.739000e+01 1.434556e+02
         vertex 2.856801e+01 1.719000e+01 1.434556e+02
      endloop
   endfacet
   facet normal 1.243194e-02 -0.000000e+00 9.999227e-01
      outer loop
         vertex 2.856801e+01 1.719000e+01 1.434556e+02
         vertex 2.856801e+01 1.739000e+01 1.434556e+02
         vertex 2.500000e+01 1.739000e+01 1.435000e+02
      endloop
   endfacet
   facet normal 1.243194e-02 0.000000e+00 9.999227e-01
      outer loop
         vertex 2.856801e+01 1.719000e+01 1.434556e+02
         vertex 2.500000e+01 1.739000e+01 1.435000e+02
         vertex 2.500000e+01 1.719000e+01 1.435000e+02
      endloop
   endfacet
   facet normal -1.243194e-02 0.000000e+00 9.999227e-01
      outer loop
         vertex 2.500000e+01 1.719000e+01 1.435000e+02
         vertex 2.500000e+01 1.739000e+01 1.435000e+02
         vertex 2.143199e+01 1.739000e+01 1.434556e+02
      endloop
   endfacet
   facet normal -1.243194e-02 0.000000e+00 9.999227e-01
      outer loop
         vertex 2.500000e+01 1.719000e+01 1.435000e+02
         vertex 2.143199e+01 1.739000e+01 1.434556e+02
         vertex 2.143199e+01 1.719000e+01 1.434556e+02
      endloop
   endfacet
   facet normal -3.729164e-02 0.000000e+00 9.993044e-01
      outer loop
         vertex 2.143199e+01 1.719000e+01 1.434556e+02
         vertex 2.143199e+01 1.739000e+01 1.434556e+02
         vertex 1.786618e+01 1.739000e+01 1.433226e+02
      endloop
   endfacet
   facet normal -3.729164e-02 0.000000e+00 9.993044e-01
      outer loop
         vertex 2.143199e+01 1.719000e+01 1.434556e+02
         vertex 1.786618e+01 1.739000e+01 1.433226e+02
         vertex 1.786618e+01 1.719000e+01 1.433226e+02
      endloop
   endfacet
   facet normal -6.212629e-02 0.000000e+00 9.980683e-01
      outer loop
         vertex 1.786618e+01 1.719000e+01 1.433226e+02
         vertex 1.786618e+01 1.739000e+01 1.433226e+02
         vertex 1.430478e+01 1.739000e+01 1.431009e+02
      endloop
   endfacet
   facet normal -6.212629e-02 0.000000e+00 9.980683e-01
      outer loop
         vertex 1.786618e+01 1.719000e+01 1.433226e+02
         vertex 1.430478e+01 1.739000e+01 1.431009e+02
         vertex 1.430478e+01 1.719000e+01 1.431009e+02
      endloop
   endfacet
   facet normal -8.406704e-02 0.000000e+00 9.964601e-01
      outer loop
         vertex 1.430478e+01 1.719000e+01 1.431009e+02
         vertex 1.430478e+01 1.739000e+01 1.431009e+02
         vertex 1.157026e+01 1.719000e+01 1.428702e+02
      endloop
   endfacet
   facet normal -9.956112e-01 -0.000000e+00 -9.358582e-02
      outer loop
         vertex 1.147668e+01 1.719000e+01 1.438658e+02
         vertex 1.157026e+01 1.719000e+01 1.428702e+02
         vertex 1.147668e+01 1.219000e+01 1.438658e+02
      endloop
   endfacet
   facet normal -9.956112e-01 0.000000e+00 -9.358582e-02
      outer loop
         vertex 1.147668e+01 1.219000e+01 1.438658e+02
         vertex 1.157026e+01 1.719000e+01 1.428702e+02
         vertex 1.157026e+01 1.219000e+01 1.428702e+02
      endloop
   endfacet
   facet normal -8.024864e-02 0.000000e+00 9.967749e-01
      outer loop
         vertex 1.147668e+01 1.719000e+01 1.438658e+02
         vertex 1.147668e+01 1.219000e+01 1.438658e+02
         vertex 1.533355e+01 1.219000e+01 1.441763e+02
      endloop
   endfacet
   facet normal -8.024864e-02 0.000000e+00 9.967749e-01
      outer loop
         vertex 1.147668e+01 1.719000e+01 1.438658e+02
         vertex 1.533355e+01 1.219000e+01 1.441763e+02
         vertex 1.533355e+01 1.719000e+01 1.441763e+02
      endloop
   endfacet
   facet normal -5.352990e-02 0.000000e+00 9.985662e-01
      outer loop
         vertex 1.533355e+01 1.719000e+01 1.441763e+02
         vertex 1.533355e+01 1.219000e+01 1.441763e+02
         vertex 1.919736e+01 1.219000e+01 1.443834e+02
      endloop
   endfacet
   facet normal -5.352990e-02 0.000000e+00 9.985662e-01
      outer loop
         vertex 1.533355e+01 1.719000e+01 1.441763e+02
         vertex 1.919736e+01 1.219000e+01 1.443834e+02
         vertex 1.919736e+01 1.719000e+01 1.443834e+02
      endloop
   endfacet
   facet normal -2.677650e-02 0.000000e+00 9.996414e-01
      outer loop
         vertex 1.919736e+01 1.719000e+01 1.443834e+02
         vertex 1.919736e+01 1.219000e+01 1.443834e+02
         vertex 2.306532e+01 1.219000e+01 1.444871e+02
      endloop
   endfacet
   facet normal -2.677650e-02 0.000000e+00 9.996414e-01
      outer loop
         vertex 1.919736e+01 1.719000e+01 1.443834e+02
         vertex 2.306532e+01 1.219000e+01 1.444871e+02
         vertex 2.306532e+01 1.719000e+01 1.444871e+02
      endloop
   endfacet
   facet normal 0.000000e+00 0.000000e+00 1.000000e+00
      outer loop
         vertex 2.306532e+01 1.719000e+01 1.444871e+02
         vertex 2.306532e+01 1.219000e+01 1.444871e+02
         vertex 2.693468e+01 1.219000e+01 1.444871e+02
      endloop
   endfacet
   facet normal -0.000000e+00 0.000000e+00 1.000000e+00
      outer loop
         vertex 2.306532e+01 1.719000e+01 1.444871e+02
         vertex 2.693468e+01 1.219000e+01 1.444871e+02
         vertex 2.693468e+01 1.719000e+01 1.444871e+02
      endloop
   endfacet
   facet normal 2.677650e-02 0.000000e+00 9.996414e-01
      outer loop
         vertex 2.693468e+01 1.719000e+01 1.444871e+02
         vertex 2.693468e+01 1.219000e+01 1.444871e+02
         vertex 3.080264e+01 1.219000e+01 1.443834e+02
      endloop
   endfacet
   facet normal 2.677650e-02 0.000000e+00 9.996414e-01
      outer loop
         vertex 2.693468e+01 1.719000e+01 1.444871e+02
         vertex 3.080264e+01 1.219000e+01 1.443834e+02
         vertex 3.080264e+01 1.719000e+01 1.443834e+02
      endloop
   endfacet
   facet normal 5.352990e-02 0.000000e+00 9.985662e-01
      outer loop
         vertex 3.080264e+01 1.719000e+01 1.443834e+02
         vertex 3.080264e+01 1.219000e+01 1.443834e+02
         vertex 3.466645e+01 1.219000e+01 1.441763e+02
      endloop
   endfacet
   facet normal 5.352990e-02 0.000000e+00 9.985662e-01
      outer loop
         vertex 3.080264e+01 1.719000e+01 1.443834e+02
         vertex 3.466645e+01 1.219000e+01 1.441763e+02
         vertex 3.466645e+01 1.719000e+01 1.441763e+02
      endloop
   endfacet
   facet normal 8.024864e-02 0.000000e+00 9.967749e-01
      outer loop
         vertex 3.466645e+01 1.719000e+01 1.441763e+02
         vertex 3.466645e+01 1.219000e+01 1.441763e+02
         vertex 3.852333e+01 1.219000e+01 1.438658e+02
      endloop
   endfacet
   facet normal 8.024864e-02 0.000000e+00 9.967749e-01
      outer loop
         vertex 3.466645e+01 1.719000e+01 1.441763e+02
         vertex 3.852333e+01 1.219000e+01 1.438658e+02
         vertex 3.852333e+01 1.719000e+01 1.438658e+02
      endloop
   endfacet
   facet normal 0.000000e+00 -1.000000e+00 0.000000e+00
      outer loop
         vertex 1.075000e+01 1.199000e+01 1.427907e+02
         vertex 1.075000e+01 1.199000e+01 1.377907e+02
         vertex 1.430478e+01 1.199000e+01 1.431009e+02
      endloop
   endfacet
   facet normal 0.000000e+00 -1.000000e+00 -0.000000e+00
      outer loop
         vertex 1.430478e+01 1.199000e+01 1.431009e+02
         vertex 1.075000e+01 1.199000e+01 1.377907e+02
         vertex 1.786618e+01 1.199000e+01 1.433226e+02
      endloop
   endfacet
   facet normal -0.000000e+00 -1.000000e+00 -0.000000e+00
      outer loop
         vertex 3.925000e+01 1.199000e+01 1.427907e+02
         vertex 3.569522e+01 1.199000e+01 1.431009e+02
         vertex 3.925000e+01 1.199000e+01 1.377907e+02
      endloop
   endfacet
   facet normal 0.000000e+00 -1.000000e+00 0.000000e+00
      outer loop
         vertex 3.925000e+01 1.199000e+01 1.377907e+02
         vertex 3.569522e+01 1.199000e+01 1.431009e+02
         vertex 3.213382e+01 1.199000e+01 1.433226e+02
      endloop
   endfacet
   facet normal -0.000000e+00 -1.000000e+00 -0.000000e+00
      outer loop
         vertex 3.213382e+01 1.199000e+01 1.433226e+02
         vertex 2.856801e+01 1.199000e+01 1.434556e+02
         vertex 3.925000e+01 1.199000e+01 1.377907e+02
      endloop
   endfacet
   facet normal 0.000000e+00 -1.000000e+00 0.000000e+00
      outer loop
         vertex 3.925000e+01 1.199000e+01 1.377907e+02
         vertex 2.856801e+01 1.199000e+01 1.434556e+02
         vertex 2.500000e+01 1.199000e+01 1.435000e+02
      endloop
   endfacet
   facet normal 0.000000e+00 -1.000000e+00 0.000000e+00
      outer loop
         vertex 3.925000e+01 1.199000e+01 1.377907e+02
         vertex 2.500000e+01 1.199000e+01 1.435000e+02
         vertex 1.075000e+01 1.199000e+01 1.377907e+02
      endloop
   endfacet
   facet normal 0.000000e+00 -1.000000e+00 0.000000e+00
      outer loop
         vertex 1.075000e+01 1.199000e+01 1.377907e+02
         vertex 2.500000e+01 1.199000e+01 1.435000e+02
         vertex 2.143199e+01 1.199000e+01 1.434556e+02
      endloop
   endfacet
   facet normal 0.000000e+00 -1.000000e+00 0.000000e+00
      outer loop
         vertex 1.075000e+01 1.199000e+01 1.377907e+02
         vertex 2.143199e+01 1.199000e+01 1.434556e+02
         vertex 1.786618e+01 1.199000e+01 1.433226e+02
      endloop
   endfacet
   facet normal 0.000000e+00 1.000000e+00 0.000000e+00
      outer loop
         vertex 1.075000e+01 1.739000e+01 1.377907e+02
         vertex 1.075000e+01 1.739000e+01 1.427907e+02
         vertex 1.430478e+01 1.739000e+01 1.431009e+02
      endloop
   endfacet
   facet normal -0.000000e+00 1.000000e+00 0.000000e+00
      outer loop
         vertex 1.430478e+01 1.739000e+01 1.431009e+02
         vertex 1.786618e+01 1.739000e+01 1.433226e+02
         vertex 1.075000e+01 1.739000e+01 1.377907e+02
      endloop
   endfacet
   facet normal 0.000000e+00 1.000000e+00 0.000000e+00
      outer loop
         vertex 1.075000e+01 1.739000e+01 1.377907e+02
         vertex 1.786618e+01 1.739000e+01 1.433226e+02
         vertex 2.143199e+01 1.739000e+01 1.434556e+02
      endloop
   endfacet
   facet normal 0.000000e+00 1.000000e+00 0.000000e+00
      outer loop
         vertex 1.075000e+01 1.739000e+01 1.377907e+02
         vertex 2.143199e+01 1.739000e+01 1.434556e+02
         vertex 3.925000e+01 1.739000e+01 1.377907e+02
      endloop
   endfacet
   facet normal 0.000000e+00 1.000000e+00 0.000000e+00
      outer loop
         vertex 3.925000e+01 1.739000e+01 1.377907e+02
         vertex 2.143199e+01 1.739000e+01 1.434556e+02
         vertex 2.500000e+01 1.739000e+01 1.435000e+02
      endloop
   endfacet
   facet normal 0.000000e+00 1.000000e+00 0.000000e+00
      outer loop
         vertex 3.925000e+01 1.739000e+01 1.377907e+02
         vertex 2.500000e+01 1.739000e+01 1.435000e+02
         vertex 2.856801e+01 1.739000e+01 1.434556e+02
      endloop
   endfacet
   facet normal 0.000000e+00 1.000000e+00 0.000000e+00
      outer loop
         vertex 2.856801e+01 1.739000e+01 1.434556e+02
         vertex 3.213382e+01 1.739000e+01 1.433226e+02
         vertex 3.925000e+01 1.739000e+01 1.377907e+02
      endloop
   endfacet
   facet normal 0.000000e+00 1.000000e+00 0.000000e+00
      outer loop
         vertex 3.925000e+01 1.739000e+01 1.377907e+02
         vertex 3.213382e+01 1.739000e+01 1.433226e+02
         vertex 3.569522e+01 1.739000e+01 1.431009e+02
      endloop
   endfacet
   facet normal 0.000000e+00 1.000000e+00 -0.000000e+00
      outer loop
         vertex 3.925000e+01 1.739000e+01 1.377907e+02
         vertex 3.569522e+01 1.739000e+01 1.431009e+02
         vertex 3.925000e+01 1.739000e+01 1.427907e+02
      endloop
   endfacet
endsolid [c]_front_logic_lens_x2