solid [c]_rear_logic_lens
   facet normal 0.000000e+00 1.000000e+00 0.000000e+00
      outer loop
         vertex 3.577155e+01 1.812000e+01 1.440980e+02
         vertex 3.569701e+01 1.812000e+01 1.431008e+02
         vertex 3.218474e+01 1.812000e+01 1.443213e+02
      endloop
   endfacet
   facet normal 0.000000e+00 1.000000e+00 0.000000e+00
      outer loop
         vertex 3.218474e+01 1.812000e+01 1.443213e+02
         vertex 3.569701e+01 1.812000e+01 1.431008e+02
         vertex 3.321860e+01 1.812000e+01 1.432645e+02
      endloop
   endfacet
   facet normal 0.000000e+00 1.000000e+00 0.000000e+00
      outer loop
         vertex 3.218474e+01 1.812000e+01 1.443213e+02
         vertex 3.321860e+01 1.812000e+01 1.432645e+02
         vertex 2.859348e+01 1.812000e+01 1.444553e+02
      endloop
   endfacet
   facet normal 0.000000e+00 1.000000e+00 0.000000e+00
      outer loop
         vertex 2.859348e+01 1.812000e+01 1.444553e+02
         vertex 3.321860e+01 1.812000e+01 1.432645e+02
         vertex 2.993289e+01 1.812000e+01 1.434152e+02
      endloop
   endfacet
   facet normal 0.000000e+00 1.000000e+00 0.000000e+00
      outer loop
         vertex 2.859348e+01 1.812000e+01 1.444553e+02
         vertex 2.993289e+01 1.812000e+01 1.434152e+02
         vertex 2.500000e+01 1.812000e+01 1.445000e+02
      endloop
   endfacet
   facet normal 0.000000e+00 1.000000e+00 -0.000000e+00
      outer loop
         vertex 1.430299e+01 1.812000e+01 1.431008e+02
         vertex 1.422845e+01 1.812000e+01 1.440980e+02
         vertex 1.678140e+01 1.812000e+01 1.432645e+02
      endloop
   endfacet
   facet normal 0.000000e+00 1.000000e+00 -0.000000e+00
      outer loop
         vertex 1.678140e+01 1.812000e+01 1.432645e+02
         vertex 1.422845e+01 1.812000e+01 1.440980e+02
         vertex 1.781526e+01 1.812000e+01 1.443213e+02
      endloop
   endfacet
   facet normal 0.000000e+00 1.000000e+00 0.000000e+00
      outer loop
         vertex 1.678140e+01 1.812000e+01 1.432645e+02
         vertex 1.781526e+01 1.812000e+01 1.443213e+02
         vertex 2.006711e+01 1.812000e+01 1.434152e+02
      endloop
   endfacet
   facet normal 0.000000e+00 1.000000e+00 -0.000000e+00
      outer loop
         vertex 2.006711e+01 1.812000e+01 1.434152e+02
         vertex 1.781526e+01 1.812000e+01 1.443213e+02
         vertex 2.140652e+01 1.812000e+01 1.444553e+02
      endloop
   endfacet
   facet normal 0.000000e+00 1.000000e+00 0.000000e+00
      outer loop
         vertex 2.006711e+01 1.812000e+01 1.434152e+02
         vertex 2.140652e+01 1.812000e+01 1.444553e+02
         vertex 2.335542e+01 1.812000e+01 1.434906e+02
      endloop
   endfacet
   facet normal 0.000000e+00 1.000000e+00 -0.000000e+00
      outer loop
         vertex 2.335542e+01 1.812000e+01 1.434906e+02
         vertex 2.140652e+01 1.812000e+01 1.444553e+02
         vertex 2.500000e+01 1.812000e+01 1.445000e+02
      endloop
   endfacet
   facet normal 0.000000e+00 1.000000e+00 0.000000e+00
      outer loop
         vertex 2.335542e+01 1.812000e+01 1.434906e+02
         vertex 2.500000e+01 1.812000e+01 1.445000e+02
         vertex 2.664459e+01 1.812000e+01 1.434906e+02
      endloop
   endfacet
   facet normal -0.000000e+00 1.000000e+00 -0.000000e+00
      outer loop
         vertex 2.664459e+01 1.812000e+01 1.434906e+02
         vertex 2.500000e+01 1.812000e+01 1.445000e+02
         vertex 2.993289e+01 1.812000e+01 1.434152e+02
      endloop
   endfacet
   facet normal 0.000000e+00 -1.000000e+00 0.000000e+00
      outer loop
         vertex 1.422845e+01 1.312000e+01 1.440980e+02
         vertex 1.430299e+01 1.312000e+01 1.431008e+02
         vertex 1.781526e+01 1.312000e+01 1.443213e+02
      endloop
   endfacet
   facet normal 0.000000e+00 -1.000000e+00 0.000000e+00
      outer loop
         vertex 1.781526e+01 1.312000e+01 1.443213e+02
         vertex 1.430299e+01 1.312000e+01 1.431008e+02
         vertex 1.678140e+01 1.312000e+01 1.432645e+02
      endloop
   endfacet
   facet normal 0.000000e+00 -1.000000e+00 -0.000000e+00
      outer loop
         vertex 1.781526e+01 1.312000e+01 1.443213e+02
         vertex 1.678140e+01 1.312000e+01 1.432645e+02
         vertex 2.140652e+01 1.312000e+01 1.444553e+02
      endloop
   endfacet
   facet normal 0.000000e+00 -1.000000e+00 0.000000e+00
      outer loop
         vertex 2.140652e+01 1.312000e+01 1.444553e+02
         vertex 1.678140e+01 1.312000e+01 1.432645e+02
         vertex 2.006711e+01 1.312000e+01 1.434152e+02
      endloop
   endfacet
   facet normal 0.000000e+00 -1.000000e+00 -0.000000e+00
      outer loop
         vertex 2.140652e+01 1.312000e+01 1.444553e+02
         vertex 2.006711e+01 1.312000e+01 1.434152e+02
         vertex 2.500000e+01 1.312000e+01 1.445000e+02
      endloop
   endfacet
   facet normal 0.000000e+00 -1.000000e+00 0.000000e+00
      outer loop
         vertex 3.569701e+01 1.312000e+01 1.431008e+02
         vertex 3.577155e+01 1.312000e+01 1.440980e+02
         vertex 3.321860e+01 1.312000e+01 1.432645e+02
      endloop
   endfacet
   facet normal 0.000000e+00 -1.000000e+00 0.000000e+00
      outer loop
         vertex 3.321860e+01 1.312000e+01 1.432645e+02
         vertex 3.577155e+01 1.312000e+01 1.440980e+02
         vertex 3.218474e+01 1.312000e+01 1.443213e+02
      endloop
   endfacet
   facet normal 0.000000e+00 -1.000000e+00 0.000000e+00
      outer loop
         vertex 3.321860e+01 1.312000e+01 1.432645e+02
         vertex 3.218474e+01 1.312000e+01 1.443213e+02
         vertex 2.993289e+01 1.312000e+01 1.434152e+02
      endloop
   endfacet
   facet normal 0.000000e+00 -1.000000e+00 0.000000e+00
      outer loop
         vertex 2.993289e+01 1.312000e+01 1.434152e+02
         vertex 3.218474e+01 1.312000e+01 1.443213e+02
         vertex 2.859348e+01 1.312000e+01 1.444553e+02
      endloop
   endfacet
   facet normal 0.000000e+00 -1.000000e+00 0.000000e+00
      outer loop
         vertex 2.993289e+01 1.312000e+01 1.434152e+02
         vertex 2.859348e+01 1.312000e+01 1.444553e+02
         vertex 2.664459e+01 1.312000e+01 1.434906e+02
      endloop
   endfacet
   facet normal 0.000000e+00 -1.000000e+00 0.000000e+00
      outer loop
         vertex 2.664459e+01 1.312000e+01 1.434906e+02
         vertex 2.859348e+01 1.312000e+01 1.444553e+02
         vertex 2.500000e+01 1.312000e+01 1.445000e+02
      endloop
   endfacet
   facet normal 0.000000e+00 -1.000000e+00 0.000000e+00
      outer loop
         vertex 2.664459e+01 1.312000e+01 1.434906e+02
         vertex 2.500000e+01 1.312000e+01 1.445000e+02
         vertex 2.335542e+01 1.312000e+01 1.434906e+02
      endloop
   endfacet
   facet normal -0.000000e+00 -1.000000e+00 0.000000e+00
      outer loop
         vertex 2.335542e+01 1.312000e+01 1.434906e+02
         vertex 2.500000e+01 1.312000e+01 1.445000e+02
         vertex 2.006711e+01 1.312000e+01 1.434152e+02
      endloop
   endfacet
   facet normal 9.972178e-01 0.000000e+00 -7.454323e-02
      outer loop
         vertex 3.569701e+01 1.812000e+01 1.431008e+02
         vertex 3.577155e+01 1.812000e+01 1.440980e+02
         vertex 3.569701e+01 1.312000e+01 1.431008e+02
      endloop
   endfacet
   facet normal 9.972178e-01 0.000000e+00 -7.454323e-02
      outer loop
         vertex 3.569701e+01 1.312000e+01 1.431008e+02
         vertex 3.577155e+01 1.812000e+01 1.440980e+02
         vertex 3.577155e+01 1.312000e+01 1.440980e+02
      endloop
   endfacet
   facet normal 1.000000e+00 0.000000e+00 0.000000e+00
      outer loop
         vertex 3.650000e+01 1.292000e+01 1.380385e+02
         vertex 3.650000e+01 1.832000e+01 1.380385e+02
         vertex 3.650000e+01 1.292000e+01 1.430385e+02
      endloop
   endfacet
   facet normal 1.000000e+00 -0.000000e+00 0.000000e+00
      outer loop
         vertex 3.650000e+01 1.292000e+01 1.430385e+02
         vertex 3.650000e+01 1.832000e+01 1.380385e+02
         vertex 3.650000e+01 1.832000e+01 1.430385e+02
      endloop
   endfacet
   facet normal 0.000000e+00 0.000000e+00 -1.000000e+00
      outer loop
         vertex 1.350000e+01 1.292000e+01 1.380385e+02
         vertex 1.350000e+01 1.832000e+01 1.380385e+02
         vertex 3.650000e+01 1.292000e+01 1.380385e+02
      endloop
   endfacet
   facet normal 0.000000e+00 0.000000e+00 -1.000000e+00
      outer loop
         vertex 3.650000e+01 1.292000e+01 1.380385e+02
         vertex 1.350000e+01 1.832000e+01 1.380385e+02
         vertex 3.650000e+01 1.832000e+01 1.380385e+02
      endloop
   endfacet
   facet normal -1.000000e+00 0.000000e+00 0.000000e+00
      outer loop
         vertex 1.350000e+01 1.292000e+01 1.430385e+02
         vertex 1.350000e+01 1.832000e+01 1.430385e+02
         vertex 1.350000e+01 1.292000e+01 1.380385e+02
      endloop
   endfacet
   facet normal -1.000000e+00 0.000000e+00 0.000000e+00
      outer loop
         vertex 1.350000e+01 1.292000e+01 1.380385e+02
         vertex 1.350000e+01 1.832000e+01 1.430385e+02
         vertex 1.350000e+01 1.832000e+01 1.380385e+02
      endloop
   endfacet
   facet normal -7.735464e-02 0.000000e+00 9.970036e-01
      outer loop
         vertex 1.430299e+01 1.312000e+01 1.431008e+02
         vertex 1.430299e+01 1.812000e+01 1.431008e+02
         vertex 1.350000e+01 1.832000e+01 1.430385e+02
      endloop
   endfacet
   facet normal -6.867035e-02 3.487520e-02 9.970296e-01
      outer loop
         vertex 1.350000e+01 1.832000e+01 1.430385e+02
         vertex 1.430299e+01 1.812000e+01 1.431008e+02
         vertex 1.678140e+01 1.832000e+01 1.432645e+02
      endloop
   endfacet
   facet normal -7.735464e-02 0.000000e+00 9.970036e-01
      outer loop
         vertex 1.350000e+01 1.832000e+01 1.430385e+02
         vertex 1.350000e+01 1.292000e+01 1.430385e+02
         vertex 1.430299e+01 1.312000e+01 1.431008e+02
      endloop
   endfacet
   facet normal -6.867035e-02 -3.487503e-02 9.970296e-01
      outer loop
         vertex 1.430299e+01 1.312000e+01 1.431008e+02
         vertex 1.350000e+01 1.292000e+01 1.430385e+02
         vertex 1.678140e+01 1.292000e+01 1.432645e+02
      endloop
   endfacet
   facet normal -6.590860e-02 0.000000e+00 9.978257e-01
      outer loop
         vertex 1.430299e+01 1.312000e+01 1.431008e+02
         vertex 1.678140e+01 1.292000e+01 1.432645e+02
         vertex 1.678140e+01 1.312000e+01 1.432645e+02
      endloop
   endfacet
   facet normal -4.582472e-02 0.000000e+00 9.989495e-01
      outer loop
         vertex 1.678140e+01 1.312000e+01 1.432645e+02
         vertex 1.678140e+01 1.292000e+01 1.432645e+02
         vertex 2.006711e+01 1.292000e+01 1.434152e+02
      endloop
   endfacet
   facet normal -4.582472e-02 0.000000e+00 9.989495e-01
      outer loop
         vertex 1.678140e+01 1.312000e+01 1.432645e+02
         vertex 2.006711e+01 1.292000e+01 1.434152e+02
         vertex 2.006711e+01 1.312000e+01 1.434152e+02
      endloop
   endfacet
   facet normal -2.292368e-02 0.000000e+00 9.997372e-01
      outer loop
         vertex 2.006711e+01 1.312000e+01 1.434152e+02
         vertex 2.006711e+01 1.292000e+01 1.434152e+02
         vertex 2.335542e+01 1.292000e+01 1.434906e+02
      endloop
   endfacet
   facet normal -2.292368e-02 0.000000e+00 9.997372e-01
      outer loop
         vertex 2.006711e+01 1.312000e+01 1.434152e+02
         vertex 2.335542e+01 1.292000e+01 1.434906e+02
         vertex 2.335542e+01 1.312000e+01 1.434906e+02
      endloop
   endfacet
   facet normal 0.000000e+00 0.000000e+00 1.000000e+00
      outer loop
         vertex 2.335542e+01 1.312000e+01 1.434906e+02
         vertex 2.335542e+01 1.292000e+01 1.434906e+02
         vertex 2.664459e+01 1.292000e+01 1.434906e+02
      endloop
   endfacet
   facet normal -0.000000e+00 0.000000e+00 1.000000e+00
      outer loop
         vertex 2.335542e+01 1.312000e+01 1.434906e+02
         vertex 2.664459e+01 1.292000e+01 1.434906e+02
         vertex 2.664459e+01 1.312000e+01 1.434906e+02
      endloop
   endfacet
   facet normal 2.292368e-02 0.000000e+00 9.997372e-01
      outer loop
         vertex 2.664459e+01 1.312000e+01 1.434906e+02
         vertex 2.664459e+01 1.292000e+01 1.434906e+02
         vertex 2.993289e+01 1.292000e+01 1.434152e+02
      endloop
   endfacet
   facet normal 2.292368e-02 0.000000e+00 9.997372e-01
      outer loop
         vertex 2.664459e+01 1.312000e+01 1.434906e+02
         vertex 2.993289e+01 1.292000e+01 1.434152e+02
         vertex 2.993289e+01 1.312000e+01 1.434152e+02
      endloop
   endfacet
   facet normal 4.582472e-02 0.000000e+00 9.989495e-01
      outer loop
         vertex 2.993289e+01 1.312000e+01 1.434152e+02
         vertex 2.993289e+01 1.292000e+01 1.434152e+02
         vertex 3.321860e+01 1.292000e+01 1.432645e+02
      endloop
   endfacet
   facet normal 4.582472e-02 0.000000e+00 9.989495e-01
      outer loop
         vertex 2.993289e+01 1.312000e+01 1.434152e+02
         vertex 3.321860e+01 1.292000e+01 1.432645e+02
         vertex 3.321860e+01 1.312000e+01 1.432645e+02
      endloop
   endfacet
   facet normal 6.590860e-02 0.000000e+00 9.978257e-01
      outer loop
         vertex 3.321860e+01 1.312000e+01 1.432645e+02
         vertex 3.321860e+01 1.292000e+01 1.432645e+02
         vertex 3.569701e+01 1.312000e+01 1.431008e+02
      endloop
   endfacet
   facet normal 6.867035e-02 -3.487503e-02 9.970296e-01
      outer loop
         vertex 3.569701e+01 1.312000e+01 1.431008e+02
         vertex 3.321860e+01 1.292000e+01 1.432645e+02
         vertex 3.650000e+01 1.292000e+01 1.430385e+02
      endloop
   endfacet
   facet normal 7.735464e-02 -0.000000e+00 9.970036e-01
      outer loop
         vertex 3.569701e+01 1.312000e+01 1.431008e+02
         vertex 3.650000e+01 1.292000e+01 1.430385e+02
         vertex 3.569701e+01 1.812000e+01 1.431008e+02
      endloop
   endfacet
   facet normal 7.735464e-02 -0.000000e+00 9.970036e-01
      outer loop
         vertex 3.650000e+01 1.292000e+01 1.430385e+02
         vertex 3.650000e+01 1.832000e+01 1.430385e+02
         vertex 3.569701e+01 1.812000e+01 1.431008e+02
      endloop
   endfacet
   facet normal 6.867035e-02 3.487520e-02 9.970296e-01
      outer loop
         vertex 3.569701e+01 1.812000e+01 1.431008e+02
         vertex 3.650000e+01 1.832000e+01 1.430385e+02
         vertex 3.321860e+01 1.832000e+01 1.432645e+02
      endloop
   endfacet
   facet normal 6.590860e-02 0.000000e+00 9.978257e-01
      outer loop
         vertex 3.569701e+01 1.812000e+01 1.431008e+02
         vertex 3.321860e+01 1.832000e+01 1.432645e+02
         vertex 3.321860e+01 1.812000e+01 1.432645e+02
      endloop
   endfacet
   facet normal 4.582472e-02 -0.000000e+00 9.989495e-01
      outer loop
         vertex 3.321860e+01 1.812000e+01 1.432645e+02
         vertex 3.321860e+01 1.832000e+01 1.432645e+02
         vertex 2.993289e+01 1.832000e+01 1.434152e+02
      endloop
   endfacet
   facet normal 4.582472e-02 0.000000e+00 9.989495e-01
      outer loop
         vertex 3.321860e+01 1.812000e+01 1.432645e+02
         vertex 2.993289e+01 1.832000e+01 1.434152e+02
         vertex 2.993289e+01 1.812000e+01 1.434152e+02
      endloop
   endfacet
   facet normal 2.292368e-02 -0.000000e+00 9.997372e-01
      outer loop
         vertex 2.993289e+01 1.812000e+01 1.434152e+02
         vertex 2.993289e+01 1.832000e+01 1.434152e+02
         vertex 2.664459e+01 1.832000e+01 1.434906e+02
      endloop
   endfacet
   facet normal 2.292368e-02 0.000000e+00 9.997372e-01
      outer loop
         vertex 2.993289e+01 1.812000e+01 1.434152e+02
         vertex 2.664459e+01 1.832000e+01 1.434906e+02
         vertex 2.664459e+01 1.812000e+01 1.434906e+02
      endloop
   endfacet
   facet normal 0.000000e+00 -0.000000e+00 1.000000e+00
      outer loop
         vertex 2.664459e+01 1.812000e+01 1.434906e+02
         vertex 2.664459e+01 1.832000e+01 1.434906e+02
         vertex 2.335542e+01 1.832000e+01 1.434906e+02
      endloop
   endfacet
   facet normal 0.000000e+00 0.000000e+00 1.000000e+00
      outer loop
         vertex 2.664459e+01 1.812000e+01 1.434906e+02
         vertex 2.335542e+01 1.832000e+01 1.434906e+02
         vertex 2.335542e+01 1.812000e+01 1.434906e+02
      endloop
   endfacet
   facet normal -2.292368e-02 0.000000e+00 9.997372e-01
      outer loop
         vertex 2.335542e+01 1.812000e+01 1.434906e+02
         vertex 2.335542e+01 1.832000e+01 1.434906e+02
         vertex 2.006711e+01 1.832000e+01 1.434152e+02
      endloop
   endfacet
   facet normal -2.292368e-02 0.000000e+00 9.997372e-01
      outer loop
         vertex 2.335542e+01 1.812000e+01 1.434906e+02
         vertex 2.006711e+01 1.832000e+01 1.434152e+02
         vertex 2.006711e+01 1.812000e+01 1.434152e+02
      endloop
   endfacet
   facet normal -4.582472e-02 0.000000e+00 9.989495e-01
      outer loop
         vertex 2.006711e+01 1.812000e+01 1.434152e+02
         vertex 2.006711e+01 1.832000e+01 1.434152e+02
         vertex 1.678140e+01 1.832000e+01 1.432645e+02
      endloop
   endfacet
   facet normal -4.582472e-02 0.000000e+00 9.989495e-01
      outer loop
         vertex 2.006711e+01 1.812000e+01 1.434152e+02
         vertex 1.678140e+01 1.832000e+01 1.432645e+02
         vertex 1.678140e+01 1.812000e+01 1.432645e+02
      endloop
   endfacet
   facet normal -6.590860e-02 0.000000e+00 9.978257e-01
      outer loop
         vertex 1.678140e+01 1.812000e+01 1.432645e+02
         vertex 1.678140e+01 1.832000e+01 1.432645e+02
         vertex 1.430299e+01 1.812000e+01 1.431008e+02
      endloop
   endfacet
   facet normal -9.972178e-01 -0.000000e+00 -7.454323e-02
      outer loop
         vertex 1.422845e+01 1.812000e+01 1.440980e+02
         vertex 1.430299e+01 1.812000e+01 1.431008e+02
         vertex 1.422845e+01 1.312000e+01 1.440980e+02
      endloop
   endfacet
   facet normal -9.972178e-01 0.000000e+00 -7.454323e-02
      outer loop
         vertex 1.422845e+01 1.312000e+01 1.440980e+02
         vertex 1.430299e+01 1.812000e+01 1.431008e+02
         vertex 1.430299e+01 1.312000e+01 1.431008e+02
      endloop
   endfacet
   facet normal -6.213795e-02 0.000000e+00 9.980676e-01
      outer loop
         vertex 1.422845e+01 1.812000e+01 1.440980e+02
         vertex 1.422845e+01 1.312000e+01 1.440980e+02
         vertex 1.781526e+01 1.312000e+01 1.443213e+02
      endloop
   endfacet
   facet normal -6.213795e-02 0.000000e+00 9.980676e-01
      outer loop
         vertex 1.422845e+01 1.812000e+01 1.440980e+02
         vertex 1.781526e+01 1.312000e+01 1.443213e+02
         vertex 1.781526e+01 1.812000e+01 1.443213e+02
      endloop
   endfacet
   facet normal -3.729688e-02 0.000000e+00 9.993042e-01
      outer loop
         vertex 1.781526e+01 1.812000e+01 1.443213e+02
         vertex 1.781526e+01 1.312000e+01 1.443213e+02
         vertex 2.140652e+01 1.312000e+01 1.444553e+02
      endloop
   endfacet
   facet normal -3.729688e-02 0.000000e+00 9.993042e-01
      outer loop
         vertex 1.781526e+01 1.812000e+01 1.443213e+02
         vertex 2.140652e+01 1.312000e+01 1.444553e+02
         vertex 2.140652e+01 1.812000e+01 1.444553e+02
      endloop
   endfacet
   facet normal -1.243505e-02 0.000000e+00 9.999227e-01
      outer loop
         vertex 2.140652e+01 1.812000e+01 1.444553e+02
         vertex 2.140652e+01 1.312000e+01 1.444553e+02
         vertex 2.500000e+01 1.312000e+01 1.445000e+02
      endloop
   endfacet
   facet normal -1.243505e-02 0.000000e+00 9.999227e-01
      outer loop
         vertex 2.140652e+01 1.812000e+01 1.444553e+02
         vertex 2.500000e+01 1.312000e+01 1.445000e+02
         vertex 2.500000e+01 1.812000e+01 1.445000e+02
      endloop
   endfacet
   facet normal 1.243505e-02 0.000000e+00 9.999227e-01
      outer loop
         vertex 2.500000e+01 1.812000e+01 1.445000e+02
         vertex 2.500000e+01 1.312000e+01 1.445000e+02
         vertex 2.859348e+01 1.312000e+01 1.444553e+02
      endloop
   endfacet
   facet normal 1.243505e-02 0.000000e+00 9.999227e-01
      outer loop
         vertex 2.500000e+01 1.812000e+01 1.445000e+02
         vertex 2.859348e+01 1.312000e+01 1.444553e+02
         vertex 2.859348e+01 1.812000e+01 1.444553e+02
      endloop
   endfacet
   facet normal 3.729688e-02 0.000000e+00 9.993042e-01
      outer loop
         vertex 2.859348e+01 1.812000e+01 1.444553e+02
         vertex 2.859348e+01 1.312000e+01 1.444553e+02
         vertex 3.218474e+01 1.312000e+01 1.443213e+02
      endloop
   endfacet
   facet normal 3.729688e-02 0.000000e+00 9.993042e-01
      outer loop
         vertex 2.859348e+01 1.812000e+01 1.444553e+02
         vertex 3.218474e+01 1.312000e+01 1.443213e+02
         vertex 3.218474e+01 1.812000e+01 1.443213e+02
      endloop
   endfacet
   facet normal 6.213795e-02 0.000000e+00 9.980676e-01
      outer loop
         vertex 3.218474e+01 1.812000e+01 1.443213e+02
         vertex 3.218474e+01 1.312000e+01 1.443213e+02
         vertex 3.577155e+01 1.312000e+01 1.440980e+02
      endloop
   endfacet
   facet normal 6.213795e-02 0.000000e+00 9.980676e-01
      outer loop
         vertex 3.218474e+01 1.812000e+01 1.443213e+02
         vertex 3.577155e+01 1.312000e+01 1.440980e+02
         vertex 3.577155e+01 1.812000e+01 1.440980e+02
      endloop
   endfacet
   facet normal 0.000000e+00 -1.000000e+00 0.000000e+00
      outer loop
         vertex 1.678140e+01 1.292000e+01 1.432645e+02
         vertex 1.350000e+01 1.292000e+01 1.430385e+02
         vertex 1.350000e+01 1.292000e+01 1.380385e+02
      endloop
   endfacet
   facet normal 0.000000e+00 -1.000000e+00 0.000000e+00
      outer loop
         vertex 3.650000e+01 1.292000e+01 1.380385e+02
         vertex 3.650000e+01 1.292000e+01 1.430385e+02
         vertex 3.321860e+01 1.292000e+01 1.432645e+02
      endloop
   endfacet
   facet normal 0.000000e+00 -1.000000e+00 -0.000000e+00
      outer loop
         vertex 1.678140e+01 1.292000e+01 1.432645e+02
         vertex 1.350000e+01 1.292000e+01 1.380385e+02
         vertex 2.006711e+01 1.292000e+01 1.434152e+02
      endloop
   endfacet
   facet normal -0.000000e+00 -1.000000e+00 -0.000000e+00
      outer loop
         vertex 3.321860e+01 1.292000e+01 1.432645e+02
         vertex 2.993289e+01 1.292000e+01 1.434152e+02
         vertex 3.650000e+01 1.292000e+01 1.380385e+02
      endloop
   endfacet
   facet normal 0.000000e+00 -1.000000e+00 0.000000e+00
      outer loop
         vertex 3.650000e+01 1.292000e+01 1.380385e+02
         vertex 2.993289e+01 1.292000e+01 1.434152e+02
         vertex 2.664459e+01 1.292000e+01 1.434906e+02
      endloop
   endfacet
   facet normal 0.000000e+00 -1.000000e+00 0.000000e+00
      outer loop
         vertex 3.650000e+01 1.292000e+01 1.380385e+02
         vertex 2.664459e+01 1.292000e+01 1.434906e+02
         vertex 1.350000e+01 1.292000e+01 1.380385e+02
      endloop
   endfacet
   facet normal 0.000000e+00 -1.000000e+00 0.000000e+00
      outer loop
         vertex 1.350000e+01 1.292000e+01 1.380385e+02
         vertex 2.664459e+01 1.292000e+01 1.434906e+02
         vertex 2.335542e+01 1.292000e+01 1.434906e+02
      endloop
   endfacet
   facet normal 0.000000e+00 -1.000000e+00 0.000000e+00
      outer loop
         vertex 1.350000e+01 1.292000e+01 1.380385e+02
         vertex 2.335542e+01 1.292000e+01 1.434906e+02
         vertex 2.006711e+01 1.292000e+01 1.434152e+02
      endloop
   endfacet
   facet normal 0.000000e+00 1.000000e+00 0.000000e+00
      outer loop
         vertex 3.321860e+01 1.832000e+01 1.432645e+02
         vertex 3.650000e+01 1.832000e+01 1.430385e+02
         vertex 3.650000e+01 1.832000e+01 1.380385e+02
      endloop
   endfacet
   facet normal 0.000000e+00 1.000000e+00 0.000000e+00
      outer loop
         vertex 1.350000e+01 1.832000e+01 1.380385e+02
         vertex 1.350000e+01 1.832000e+01 1.430385e+02
         vertex 1.678140e+01 1.832000e+01 1.432645e+02
      endloop
   endfacet
   facet normal 0.000000e+00 1.000000e+00 0.000000e+00
      outer loop
         vertex 3.321860e+01 1.832000e+01 1.432645e+02
         vertex 3.650000e+01 1.832000e+01 1.380385e+02
         vertex 2.993289e+01 1.832000e+01 1.434152e+02
      endloop
   endfacet
   facet normal -0.000000e+00 1.000000e+00 0.000000e+00
      outer loop
         vertex 1.678140e+01 1.832000e+01 1.432645e+02
         vertex 2.006711e+01 1.832000e+01 1.434152e+02
         vertex 1.350000e+01 1.832000e+01 1.380385e+02
      endloop
   endfacet
   facet normal 0.000000e+00 1.000000e+00 0.000000e+00
      outer loop
         vertex 1.350000e+01 1.832000e+01 1.380385e+02
         vertex 2.006711e+01 1.832000e+01 1.434152e+02
         vertex 2.335542e+01 1.832000e+01 1.434906e+02
      endloop
   endfacet
   facet normal 0.000000e+00 1.000000e+00 0.000000e+00
      outer loop
         vertex 1.350000e+01 1.832000e+01 1.380385e+02
         vertex 2.335542e+01 1.832000e+01 1.434906e+02
         vertex 3.650000e+01 1.832000e+01 1.380385e+02
      endloop
   endfacet
   facet normal 0.000000e+00 1.000000e+00 0.000000e+00
      outer loop
         vertex 3.650000e+01 1.832000e+01 1.380385e+02
         vertex 2.335542e+01 1.832000e+01 1.434906e+02
         vertex 2.664459e+01 1.832000e+01 1.434906e+02
      endloop
   endfacet
   facet normal 0.000000e+00 1.000000e+00 0.000000e+00
      outer loop
         vertex 3.650000e+01 1.832000e+01 1.380385e+02
         vertex 2.664459e+01 1.832000e+01 1.434906e+02
         vertex 2.993289e+01 1.832000e+01 1.434152e+02
      endloop
   endfacet
endsolid [c]_rear_logic_lens