solid front_logic_lens_sanding_guide_one
   facet normal -1.000000e+00 0.000000e+00 0.000000e+00
      outer loop
         vertex 1.000000e+01 1.559000e+01 1.433706e+02
         vertex 1.000000e+01 1.779000e+01 1.433706e+02
         vertex 1.000000e+01 1.559000e+01 1.371907e+02
      endloop
   endfacet
   facet normal -1.000000e+00 0.000000e+00 0.000000e+00
      outer loop
         vertex 1.000000e+01 1.559000e+01 1.371907e+02
         vertex 1.000000e+01 1.779000e+01 1.433706e+02
         vertex 1.000000e+01 1.779000e+01 1.349907e+02
      endloop
   endfacet
   facet normal -1.000000e+00 -0.000000e+00 -0.000000e+00
      outer loop
         vertex 1.000000e+01 1.559000e+01 1.371907e+02
         vertex 1.000000e+01 1.779000e+01 1.349907e+02
         vertex 1.000000e+01 8.790000e+00 1.371907e+02
      endloop
   endfacet
   facet normal -1.000000e+00 0.000000e+00 -0.000000e+00
      outer loop
         vertex 1.000000e+01 8.790000e+00 1.371907e+02
         vertex 1.000000e+01 1.779000e+01 1.349907e+02
         vertex 1.000000e+01 6.590000e+00 1.349907e+02
      endloop
   endfacet
   facet normal -1.000000e+00 -0.000000e+00 0.000000e+00
      outer loop
         vertex 1.000000e+01 8.790000e+00 1.371907e+02
         vertex 1.000000e+01 6.590000e+00 1.349907e+02
         vertex 1.000000e+01 8.790000e+00 1.433706e+02
      endloop
   endfacet
   facet normal -1.000000e+00 -0.000000e+00 0.000000e+00
      outer loop
         vertex 1.000000e+01 8.790000e+00 1.433706e+02
         vertex 1.000000e+01 6.590000e+00 1.349907e+02
         vertex 1.000000e+01 6.590000e+00 1.433706e+02
      endloop
   endfacet
   facet normal -8.245769e-02 0.000000e+00 9.965946e-01
      outer loop
         vertex 1.044410e+01 8.790000e+00 1.438147e+02
         vertex 1.044410e+01 6.190000e+00 1.438147e+02
         vertex 1.472897e+01 6.190000e+00 1.441693e+02
      endloop
   endfacet
   facet normal -8.245769e-02 0.000000e+00 9.965946e-01
      outer loop
         vertex 1.044410e+01 8.790000e+00 1.438147e+02
         vertex 1.472897e+01 6.190000e+00 1.441693e+02
         vertex 1.472897e+01 8.790000e+00 1.441693e+02
      endloop
   endfacet
   facet normal -5.276642e-02 0.000000e+00 9.986069e-01
      outer loop
         vertex 1.472897e+01 8.790000e+00 1.441693e+02
         vertex 1.472897e+01 6.190000e+00 1.441693e+02
         vertex 1.902250e+01 6.190000e+00 1.443961e+02
      endloop
   endfacet
   facet normal -5.276642e-02 0.000000e+00 9.986069e-01
      outer loop
         vertex 1.472897e+01 8.790000e+00 1.441693e+02
         vertex 1.902250e+01 6.190000e+00 1.443961e+02
         vertex 1.902250e+01 8.790000e+00 1.443961e+02
      endloop
   endfacet
   facet normal -2.303700e-02 0.000000e+00 9.997346e-01
      outer loop
         vertex 1.902250e+01 8.790000e+00 1.443961e+02
         vertex 1.902250e+01 6.190000e+00 1.443961e+02
         vertex 2.332088e+01 6.190000e+00 1.444952e+02
      endloop
   endfacet
   facet normal -2.303700e-02 0.000000e+00 9.997346e-01
      outer loop
         vertex 1.902250e+01 8.790000e+00 1.443961e+02
         vertex 2.332088e+01 6.190000e+00 1.444952e+02
         vertex 2.332088e+01 8.790000e+00 1.444952e+02
      endloop
   endfacet
   facet normal 6.716671e-03 0.000000e+00 9.999774e-01
      outer loop
         vertex 2.332088e+01 8.790000e+00 1.444952e+02
         vertex 2.332088e+01 6.190000e+00 1.444952e+02
         vertex 2.762030e+01 6.190000e+00 1.444663e+02
      endloop
   endfacet
   facet normal 6.716671e-03 0.000000e+00 9.999774e-01
      outer loop
         vertex 2.332088e+01 8.790000e+00 1.444952e+02
         vertex 2.762030e+01 6.190000e+00 1.444663e+02
         vertex 2.762030e+01 8.790000e+00 1.444663e+02
      endloop
   endfacet
   facet normal 3.646687e-02 0.000000e+00 9.993349e-01
      outer loop
         vertex 2.762030e+01 8.790000e+00 1.444663e+02
         vertex 2.762030e+01 6.190000e+00 1.444663e+02
         vertex 3.191696e+01 6.190000e+00 1.443095e+02
      endloop
   endfacet
   facet normal 3.646687e-02 0.000000e+00 9.993349e-01
      outer loop
         vertex 2.762030e+01 8.790000e+00 1.444663e+02
         vertex 3.191696e+01 6.190000e+00 1.443095e+02
         vertex 3.191696e+01 8.790000e+00 1.443095e+02
      endloop
   endfacet
   facet normal 6.617897e-02 0.000000e+00 9.978078e-01
      outer loop
         vertex 3.191696e+01 8.790000e+00 1.443095e+02
         vertex 3.191696e+01 6.190000e+00 1.443095e+02
         vertex 3.620705e+01 6.190000e+00 1.440250e+02
      endloop
   endfacet
   facet normal 6.617897e-02 0.000000e+00 9.978078e-01
      outer loop
         vertex 3.191696e+01 8.790000e+00 1.443095e+02
         vertex 3.620705e+01 6.190000e+00 1.440250e+02
         vertex 3.620705e+01 8.790000e+00 1.440250e+02
      endloop
   endfacet
   facet normal 9.206278e-02 6.269254e-03 9.957335e-01
      outer loop
         vertex 3.620705e+01 1.559000e+01 1.440250e+02
         vertex 3.939738e+01 1.559000e+01 1.437300e+02
         vertex 4.048678e+01 1.819000e+01 1.436129e+02
      endloop
   endfacet
   facet normal 9.206459e-02 0.000000e+00 9.957530e-01
      outer loop
         vertex 3.620705e+01 8.790000e+00 1.440250e+02
         vertex 3.620705e+01 6.190000e+00 1.440250e+02
         vertex 3.939738e+01 8.790000e+00 1.437300e+02
      endloop
   endfacet
   facet normal 9.583799e-02 -4.671784e-03 9.953860e-01
      outer loop
         vertex 3.939738e+01 8.790000e+00 1.437300e+02
         vertex 3.620705e+01 6.190000e+00 1.440250e+02
         vertex 4.048678e+01 6.190000e+00 1.436129e+02
      endloop
   endfacet
   facet normal 1.068682e-01 -0.000000e+00 9.942732e-01
      outer loop
         vertex 3.939738e+01 8.790000e+00 1.437300e+02
         vertex 4.048678e+01 6.190000e+00 1.436129e+02
         vertex 3.939738e+01 1.559000e+01 1.437300e+02
      endloop
   endfacet
   facet normal 9.583904e-02 0.000000e+00 9.953968e-01
      outer loop
         vertex 4.048678e+01 1.819000e+01 1.436129e+02
         vertex 3.620705e+01 1.819000e+01 1.440250e+02
         vertex 3.620705e+01 1.559000e+01 1.440250e+02
      endloop
   endfacet
   facet normal 6.617897e-02 -0.000000e+00 9.978078e-01
      outer loop
         vertex 3.620705e+01 1.559000e+01 1.440250e+02
         vertex 3.620705e+01 1.819000e+01 1.440250e+02
         vertex 3.191696e+01 1.819000e+01 1.443095e+02
      endloop
   endfacet
   facet normal 6.617897e-02 0.000000e+00 9.978078e-01
      outer loop
         vertex 3.620705e+01 1.559000e+01 1.440250e+02
         vertex 3.191696e+01 1.819000e+01 1.443095e+02
         vertex 3.191696e+01 1.559000e+01 1.443095e+02
      endloop
   endfacet
   facet normal 3.646687e-02 -0.000000e+00 9.993349e-01
      outer loop
         vertex 3.191696e+01 1.559000e+01 1.443095e+02
         vertex 3.191696e+01 1.819000e+01 1.443095e+02
         vertex 2.762030e+01 1.819000e+01 1.444663e+02
      endloop
   endfacet
   facet normal 3.646687e-02 0.000000e+00 9.993349e-01
      outer loop
         vertex 3.191696e+01 1.559000e+01 1.443095e+02
         vertex 2.762030e+01 1.819000e+01 1.444663e+02
         vertex 2.762030e+01 1.559000e+01 1.444663e+02
      endloop
   endfacet
   facet normal 6.716671e-03 -0.000000e+00 9.999774e-01
      outer loop
         vertex 2.762030e+01 1.559000e+01 1.444663e+02
         vertex 2.762030e+01 1.819000e+01 1.444663e+02
         vertex 2.332088e+01 1.819000e+01 1.444952e+02
      endloop
   endfacet
   facet normal 6.716671e-03 0.000000e+00 9.999774e-01
      outer loop
         vertex 2.762030e+01 1.559000e+01 1.444663e+02
         vertex 2.332088e+01 1.819000e+01 1.444952e+02
         vertex 2.332088e+01 1.559000e+01 1.444952e+02
      endloop
   endfacet
   facet normal -2.303700e-02 0.000000e+00 9.997346e-01
      outer loop
         vertex 2.332088e+01 1.559000e+01 1.444952e+02
         vertex 2.332088e+01 1.819000e+01 1.444952e+02
         vertex 1.902250e+01 1.819000e+01 1.443961e+02
      endloop
   endfacet
   facet normal -2.303700e-02 0.000000e+00 9.997346e-01
      outer loop
         vertex 2.332088e+01 1.559000e+01 1.444952e+02
         vertex 1.902250e+01 1.819000e+01 1.443961e+02
         vertex 1.902250e+01 1.559000e+01 1.443961e+02
      endloop
   endfacet
   facet normal -5.276642e-02 0.000000e+00 9.986069e-01
      outer loop
         vertex 1.902250e+01 1.559000e+01 1.443961e+02
         vertex 1.902250e+01 1.819000e+01 1.443961e+02
         vertex 1.472897e+01 1.819000e+01 1.441693e+02
      endloop
   endfacet
   facet normal -5.276642e-02 0.000000e+00 9.986069e-01
      outer loop
         vertex 1.902250e+01 1.559000e+01 1.443961e+02
         vertex 1.472897e+01 1.819000e+01 1.441693e+02
         vertex 1.472897e+01 1.559000e+01 1.441693e+02
      endloop
   endfacet
   facet normal -8.245769e-02 0.000000e+00 9.965946e-01
      outer loop
         vertex 1.472897e+01 1.559000e+01 1.441693e+02
         vertex 1.472897e+01 1.819000e+01 1.441693e+02
         vertex 1.044410e+01 1.819000e+01 1.438147e+02
      endloop
   endfacet
   facet normal -8.245769e-02 0.000000e+00 9.965946e-01
      outer loop
         vertex 1.472897e+01 1.559000e+01 1.441693e+02
         vertex 1.044410e+01 1.819000e+01 1.438147e+02
         vertex 1.044410e+01 1.559000e+01 1.438147e+02
      endloop
   endfacet
   facet normal 1.068682e-01 0.000000e+00 9.942732e-01
      outer loop
         vertex 3.939738e+01 1.559000e+01 1.437300e+02
         vertex 4.048678e+01 6.190000e+00 1.436129e+02
         vertex 4.048678e+01 1.819000e+01 1.436129e+02
      endloop
   endfacet
   facet normal 1.254090e-01 0.000000e+00 9.921051e-01
      outer loop
         vertex 4.048678e+01 1.819000e+01 1.436129e+02
         vertex 4.048678e+01 6.190000e+00 1.436129e+02
         vertex 4.475236e+01 6.190000e+00 1.430737e+02
      endloop
   endfacet
   facet normal 1.254090e-01 0.000000e+00 9.921051e-01
      outer loop
         vertex 4.048678e+01 1.819000e+01 1.436129e+02
         vertex 4.475236e+01 6.190000e+00 1.430737e+02
         vertex 4.475236e+01 1.819000e+01 1.430737e+02
      endloop
   endfacet
   facet normal 1.548682e-01 0.000000e+00 9.879351e-01
      outer loop
         vertex 4.475236e+01 1.819000e+01 1.430737e+02
         vertex 4.475236e+01 6.190000e+00 1.430737e+02
         vertex 4.900000e+01 6.190000e+00 1.424079e+02
      endloop
   endfacet
   facet normal 1.548682e-01 0.000000e+00 9.879351e-01
      outer loop
         vertex 4.475236e+01 1.819000e+01 1.430737e+02
         vertex 4.900000e+01 6.190000e+00 1.424079e+02
         vertex 4.900000e+01 1.819000e+01 1.424079e+02
      endloop
   endfacet
   facet normal 0.000000e+00 0.000000e+00 1.000000e+00
      outer loop
         vertex 1.040000e+01 9.190000e+00 1.375907e+02
         vertex 3.900000e+01 9.190000e+00 1.375907e+02
         vertex 1.040000e+01 1.519000e+01 1.375907e+02
      endloop
   endfacet
   facet normal -0.000000e+00 0.000000e+00 1.000000e+00
      outer loop
         vertex 1.040000e+01 1.519000e+01 1.375907e+02
         vertex 3.900000e+01 9.190000e+00 1.375907e+02
         vertex 3.900000e+01 1.519000e+01 1.375907e+02
      endloop
   endfacet
   facet normal -1.000000e+00 0.000000e+00 0.000000e+00
      outer loop
         vertex 3.900000e+01 1.519000e+01 1.375907e+02
         vertex 3.900000e+01 9.190000e+00 1.375907e+02
         vertex 3.900000e+01 1.519000e+01 1.433686e+02
      endloop
   endfacet
   facet normal -1.000000e+00 -0.000000e+00 0.000000e+00
      outer loop
         vertex 3.900000e+01 1.519000e+01 1.433686e+02
         vertex 3.900000e+01 9.190000e+00 1.375907e+02
         vertex 3.900000e+01 9.190000e+00 1.433686e+02
      endloop
   endfacet
   facet normal -1.000000e+00 0.000000e+00 0.000000e+00
      outer loop
         vertex 3.900000e+01 1.519000e+01 1.433686e+02
         vertex 3.900000e+01 9.190000e+00 1.433686e+02
         vertex 3.900000e+01 1.522665e+01 1.434055e+02
      endloop
   endfacet
   facet normal -1.000000e+00 -0.000000e+00 0.000000e+00
      outer loop
         vertex 3.900000e+01 1.522665e+01 1.434055e+02
         vertex 3.900000e+01 9.190000e+00 1.433686e+02
         vertex 3.900000e+01 9.153349e+00 1.434055e+02
      endloop
   endfacet
   facet normal 0.000000e+00 1.000000e+00 0.000000e+00
      outer loop
         vertex 3.617465e+01 9.190000e+00 1.436263e+02
         vertex 3.900000e+01 9.190000e+00 1.433686e+02
         vertex 3.900000e+01 9.190000e+00 1.375907e+02
      endloop
   endfacet
   facet normal 0.000000e+00 1.000000e+00 0.000000e+00
      outer loop
         vertex 3.617465e+01 9.190000e+00 1.436263e+02
         vertex 3.900000e+01 9.190000e+00 1.375907e+02
         vertex 3.189643e+01 9.190000e+00 1.439101e+02
      endloop
   endfacet
   facet normal 0.000000e+00 1.000000e+00 0.000000e+00
      outer loop
         vertex 1.040000e+01 9.190000e+00 1.375907e+02
         vertex 2.332414e+01 9.190000e+00 1.440952e+02
         vertex 3.900000e+01 9.190000e+00 1.375907e+02
      endloop
   endfacet
   facet normal 0.000000e+00 1.000000e+00 0.000000e+00
      outer loop
         vertex 3.900000e+01 9.190000e+00 1.375907e+02
         vertex 2.332414e+01 9.190000e+00 1.440952e+02
         vertex 2.761166e+01 9.190000e+00 1.440664e+02
      endloop
   endfacet
   facet normal 0.000000e+00 1.000000e+00 0.000000e+00
      outer loop
         vertex 3.900000e+01 9.190000e+00 1.375907e+02
         vertex 2.761166e+01 9.190000e+00 1.440664e+02
         vertex 3.189643e+01 9.190000e+00 1.439101e+02
      endloop
   endfacet
   facet normal -0.000000e+00 1.000000e+00 0.000000e+00
      outer loop
         vertex 1.040000e+01 9.190000e+00 1.434085e+02
         vertex 1.475602e+01 9.190000e+00 1.437702e+02
         vertex 1.040000e+01 9.190000e+00 1.375907e+02
      endloop
   endfacet
   facet normal 0.000000e+00 1.000000e+00 0.000000e+00
      outer loop
         vertex 1.040000e+01 9.190000e+00 1.375907e+02
         vertex 1.475602e+01 9.190000e+00 1.437702e+02
         vertex 1.903766e+01 9.190000e+00 1.439964e+02
      endloop
   endfacet
   facet normal 0.000000e+00 1.000000e+00 0.000000e+00
      outer loop
         vertex 1.040000e+01 9.190000e+00 1.375907e+02
         vertex 1.903766e+01 9.190000e+00 1.439964e+02
         vertex 2.332414e+01 9.190000e+00 1.440952e+02
      endloop
   endfacet
   facet normal 1.000000e+00 0.000000e+00 0.000000e+00
      outer loop
         vertex 4.900000e+01 1.819000e+01 1.424079e+02
         vertex 4.900000e+01 6.190000e+00 1.424079e+02
         vertex 4.900000e+01 1.819000e+01 1.345907e+02
      endloop
   endfacet
   facet normal 1.000000e+00 0.000000e+00 0.000000e+00
      outer loop
         vertex 4.900000e+01 1.819000e+01 1.345907e+02
         vertex 4.900000e+01 6.190000e+00 1.424079e+02
         vertex 4.900000e+01 6.190000e+00 1.345907e+02
      endloop
   endfacet
   facet normal 0.000000e+00 0.000000e+00 -1.000000e+00
      outer loop
         vertex 4.900000e+01 6.190000e+00 1.345907e+02
         vertex 4.679554e+01 1.339010e+01 1.345907e+02
         vertex 4.900000e+01 1.819000e+01 1.345907e+02
      endloop
   endfacet
   facet normal 0.000000e+00 0.000000e+00 -1.000000e+00
      outer loop
         vertex 4.900000e+01 1.819000e+01 1.345907e+02
         vertex 4.679554e+01 1.339010e+01 1.345907e+02
         vertex 4.480788e+01 1.534025e+01 1.345907e+02
      endloop
   endfacet
   facet normal 0.000000e+00 0.000000e+00 -1.000000e+00
      outer loop
         vertex 4.900000e+01 1.819000e+01 1.345907e+02
         vertex 4.480788e+01 1.534025e+01 1.345907e+02
         vertex 4.248269e+01 1.534025e+01 1.345907e+02
      endloop
   endfacet
   facet normal 0.000000e+00 0.000000e+00 -1.000000e+00
      outer loop
         vertex 4.480788e+01 1.339010e+01 1.345907e+02
         vertex 4.679554e+01 1.339010e+01 1.345907e+02
         vertex 4.480788e+01 8.364693e+00 1.345907e+02
      endloop
   endfacet
   facet normal 0.000000e+00 0.000000e+00 -1.000000e+00
      outer loop
         vertex 4.480788e+01 8.364693e+00 1.345907e+02
         vertex 4.679554e+01 1.339010e+01 1.345907e+02
         vertex 4.900000e+01 6.190000e+00 1.345907e+02
      endloop
   endfacet
   facet normal -0.000000e+00 -0.000000e+00 -1.000000e+00
      outer loop
         vertex 4.480788e+01 8.364693e+00 1.345907e+02
         vertex 4.900000e+01 6.190000e+00 1.345907e+02
         vertex 4.248269e+01 8.364693e+00 1.345907e+02
      endloop
   endfacet
   facet normal 0.000000e+00 -0.000000e+00 -1.000000e+00
      outer loop
         vertex 4.248269e+01 8.364693e+00 1.345907e+02
         vertex 4.900000e+01 6.190000e+00 1.345907e+02
         vertex 1.040000e+01 6.190000e+00 1.345907e+02
      endloop
   endfacet
   facet normal -0.000000e+00 0.000000e+00 -1.000000e+00
      outer loop
         vertex 4.248269e+01 8.364693e+00 1.345907e+02
         vertex 1.040000e+01 6.190000e+00 1.345907e+02
         vertex 4.248269e+01 1.534025e+01 1.345907e+02
      endloop
   endfacet
   facet normal -0.000000e+00 0.000000e+00 -1.000000e+00
      outer loop
         vertex 4.248269e+01 1.534025e+01 1.345907e+02
         vertex 1.040000e+01 6.190000e+00 1.345907e+02
         vertex 1.040000e+01 1.819000e+01 1.345907e+02
      endloop
   endfacet
   facet normal 0.000000e+00 0.000000e+00 -1.000000e+00
      outer loop
         vertex 4.248269e+01 1.534025e+01 1.345907e+02
         vertex 1.040000e+01 1.819000e+01 1.345907e+02
         vertex 4.900000e+01 1.819000e+01 1.345907e+02
      endloop
   endfacet
   facet normal -0.000000e+00 -1.000000e+00 0.000000e+00
      outer loop
         vertex 2.762030e+01 6.190000e+00 1.444663e+02
         vertex 2.332088e+01 6.190000e+00 1.444952e+02
         vertex 1.040000e+01 6.190000e+00 1.345907e+02
      endloop
   endfacet
   facet normal 0.000000e+00 -1.000000e+00 0.000000e+00
      outer loop
         vertex 4.900000e+01 6.190000e+00 1.345907e+02
         vertex 4.900000e+01 6.190000e+00 1.424079e+02
         vertex 4.475236e+01 6.190000e+00 1.430737e+02
      endloop
   endfacet
   facet normal 0.000000e+00 -1.000000e+00 -0.000000e+00
      outer loop
         vertex 1.044410e+01 6.190000e+00 1.438147e+02
         vertex 1.040000e+01 6.190000e+00 1.437707e+02
         vertex 1.472897e+01 6.190000e+00 1.441693e+02
      endloop
   endfacet
   facet normal 0.000000e+00 -1.000000e+00 0.000000e+00
      outer loop
         vertex 1.472897e+01 6.190000e+00 1.441693e+02
         vertex 1.040000e+01 6.190000e+00 1.437707e+02
         vertex 1.040000e+01 6.190000e+00 1.345907e+02
      endloop
   endfacet
   facet normal 0.000000e+00 -1.000000e+00 -0.000000e+00
      outer loop
         vertex 1.472897e+01 6.190000e+00 1.441693e+02
         vertex 1.040000e+01 6.190000e+00 1.345907e+02
         vertex 1.902250e+01 6.190000e+00 1.443961e+02
      endloop
   endfacet
   facet normal 0.000000e+00 -1.000000e+00 -0.000000e+00
      outer loop
         vertex 1.902250e+01 6.190000e+00 1.443961e+02
         vertex 1.040000e+01 6.190000e+00 1.345907e+02
         vertex 2.332088e+01 6.190000e+00 1.444952e+02
      endloop
   endfacet
   facet normal -0.000000e+00 -1.000000e+00 -0.000000e+00
      outer loop
         vertex 4.475236e+01 6.190000e+00 1.430737e+02
         vertex 4.048678e+01 6.190000e+00 1.436129e+02
         vertex 4.900000e+01 6.190000e+00 1.345907e+02
      endloop
   endfacet
   facet normal 0.000000e+00 -1.000000e+00 0.000000e+00
      outer loop
         vertex 4.900000e+01 6.190000e+00 1.345907e+02
         vertex 4.048678e+01 6.190000e+00 1.436129e+02
         vertex 3.620705e+01 6.190000e+00 1.440250e+02
      endloop
   endfacet
   facet normal 0.000000e+00 -1.000000e+00 0.000000e+00
      outer loop
         vertex 4.900000e+01 6.190000e+00 1.345907e+02
         vertex 3.620705e+01 6.190000e+00 1.440250e+02
         vertex 1.040000e+01 6.190000e+00 1.345907e+02
      endloop
   endfacet
   facet normal 0.000000e+00 -1.000000e+00 0.000000e+00
      outer loop
         vertex 1.040000e+01 6.190000e+00 1.345907e+02
         vertex 3.620705e+01 6.190000e+00 1.440250e+02
         vertex 3.191696e+01 6.190000e+00 1.443095e+02
      endloop
   endfacet
   facet normal 0.000000e+00 -1.000000e+00 0.000000e+00
      outer loop
         vertex 1.040000e+01 6.190000e+00 1.345907e+02
         vertex 3.191696e+01 6.190000e+00 1.443095e+02
         vertex 2.762030e+01 6.190000e+00 1.444663e+02
      endloop
   endfacet
   facet normal 0.000000e+00 1.000000e+00 0.000000e+00
      outer loop
         vertex 4.475236e+01 1.819000e+01 1.430737e+02
         vertex 4.900000e+01 1.819000e+01 1.424079e+02
         vertex 4.900000e+01 1.819000e+01 1.345907e+02
      endloop
   endfacet
   facet normal 0.000000e+00 1.000000e+00 0.000000e+00
      outer loop
         vertex 1.040000e+01 1.819000e+01 1.345907e+02
         vertex 1.040000e+01 1.819000e+01 1.437707e+02
         vertex 1.044410e+01 1.819000e+01 1.438147e+02
      endloop
   endfacet
   facet normal -0.000000e+00 1.000000e+00 0.000000e+00
      outer loop
         vertex 1.044410e+01 1.819000e+01 1.438147e+02
         vertex 1.472897e+01 1.819000e+01 1.441693e+02
         vertex 1.040000e+01 1.819000e+01 1.345907e+02
      endloop
   endfacet
   facet normal 0.000000e+00 1.000000e+00 0.000000e+00
      outer loop
         vertex 1.040000e+01 1.819000e+01 1.345907e+02
         vertex 1.472897e+01 1.819000e+01 1.441693e+02
         vertex 1.902250e+01 1.819000e+01 1.443961e+02
      endloop
   endfacet
   facet normal 0.000000e+00 1.000000e+00 0.000000e+00
      outer loop
         vertex 1.040000e+01 1.819000e+01 1.345907e+02
         vertex 1.902250e+01 1.819000e+01 1.443961e+02
         vertex 2.332088e+01 1.819000e+01 1.444952e+02
      endloop
   endfacet
   facet normal 0.000000e+00 1.000000e+00 0.000000e+00
      outer loop
         vertex 4.475236e+01 1.819000e+01 1.430737e+02
         vertex 4.900000e+01 1.819000e+01 1.345907e+02
         vertex 4.048678e+01 1.819000e+01 1.436129e+02
      endloop
   endfacet
   facet normal 0.000000e+00 1.000000e+00 0.000000e+00
      outer loop
         vertex 2.332088e+01 1.819000e+01 1.444952e+02
         vertex 2.762030e+01 1.819000e+01 1.444663e+02
         vertex 1.040000e+01 1.819000e+01 1.345907e+02
      endloop
   endfacet
   facet normal 0.000000e+00 1.000000e+00 0.000000e+00
      outer loop
         vertex 1.040000e+01 1.819000e+01 1.345907e+02
         vertex 2.762030e+01 1.819000e+01 1.444663e+02
         vertex 3.191696e+01 1.819000e+01 1.443095e+02
      endloop
   endfacet
   facet normal 0.000000e+00 1.000000e+00 0.000000e+00
      outer loop
         vertex 1.040000e+01 1.819000e+01 1.345907e+02
         vertex 3.191696e+01 1.819000e+01 1.443095e+02
         vertex 4.900000e+01 1.819000e+01 1.345907e+02
      endloop
   endfacet
   facet normal 0.000000e+00 1.000000e+00 0.000000e+00
      outer loop
         vertex 4.900000e+01 1.819000e+01 1.345907e+02
         vertex 3.191696e+01 1.819000e+01 1.443095e+02
         vertex 3.620705e+01 1.819000e+01 1.440250e+02
      endloop
   endfacet
   facet normal 0.000000e+00 1.000000e+00 0.000000e+00
      outer loop
         vertex 4.900000e+01 1.819000e+01 1.345907e+02
         vertex 3.620705e+01 1.819000e+01 1.440250e+02
         vertex 4.048678e+01 1.819000e+01 1.436129e+02
      endloop
   endfacet
   facet normal 0.000000e+00 -1.000000e+00 0.000000e+00
      outer loop
         vertex 3.900000e+01 1.519000e+01 1.375907e+02
         vertex 3.900000e+01 1.519000e+01 1.433686e+02
         vertex 3.617465e+01 1.519000e+01 1.436263e+02
      endloop
   endfacet
   facet normal -0.000000e+00 -1.000000e+00 -0.000000e+00
      outer loop
         vertex 3.617465e+01 1.519000e+01 1.436263e+02
         vertex 3.189643e+01 1.519000e+01 1.439101e+02
         vertex 3.900000e+01 1.519000e+01 1.375907e+02
      endloop
   endfacet
   facet normal 0.000000e+00 -1.000000e+00 0.000000e+00
      outer loop
         vertex 3.900000e+01 1.519000e+01 1.375907e+02
         vertex 3.189643e+01 1.519000e+01 1.439101e+02
         vertex 2.761166e+01 1.519000e+01 1.440664e+02
      endloop
   endfacet
   facet normal 0.000000e+00 -1.000000e+00 0.000000e+00
      outer loop
         vertex 3.900000e+01 1.519000e+01 1.375907e+02
         vertex 2.761166e+01 1.519000e+01 1.440664e+02
         vertex 1.040000e+01 1.519000e+01 1.375907e+02
      endloop
   endfacet
   facet normal 0.000000e+00 -1.000000e+00 0.000000e+00
      outer loop
         vertex 1.040000e+01 1.519000e+01 1.375907e+02
         vertex 2.761166e+01 1.519000e+01 1.440664e+02
         vertex 2.332414e+01 1.519000e+01 1.440952e+02
      endloop
   endfacet
   facet normal 0.000000e+00 -1.000000e+00 0.000000e+00
      outer loop
         vertex 2.332414e+01 1.519000e+01 1.440952e+02
         vertex 1.903766e+01 1.519000e+01 1.439964e+02
         vertex 1.040000e+01 1.519000e+01 1.375907e+02
      endloop
   endfacet
   facet normal 0.000000e+00 -1.000000e+00 0.000000e+00
      outer loop
         vertex 1.040000e+01 1.519000e+01 1.375907e+02
         vertex 1.903766e+01 1.519000e+01 1.439964e+02
         vertex 1.475602e+01 1.519000e+01 1.437702e+02
      endloop
   endfacet
   facet normal 0.000000e+00 -1.000000e+00 0.000000e+00
      outer loop
         vertex 1.040000e+01 1.519000e+01 1.375907e+02
         vertex 1.475602e+01 1.519000e+01 1.437702e+02
         vertex 1.040000e+01 1.519000e+01 1.434085e+02
      endloop
   endfacet
   facet normal -0.000000e+00 -1.000000e+00 -0.000000e+00
      outer loop
         vertex 4.480788e+01 1.534025e+01 1.355907e+02
         vertex 4.248269e+01 1.534025e+01 1.355907e+02
         vertex 4.480788e+01 1.534025e+01 1.345907e+02
      endloop
   endfacet
   facet normal 0.000000e+00 -1.000000e+00 0.000000e+00
      outer loop
         vertex 4.480788e+01 1.534025e+01 1.345907e+02
         vertex 4.248269e+01 1.534025e+01 1.355907e+02
         vertex 4.248269e+01 1.534025e+01 1.345907e+02
      endloop
   endfacet
   facet normal 1.000000e+00 0.000000e+00 0.000000e+00
      outer loop
         vertex 4.248269e+01 1.534025e+01 1.355907e+02
         vertex 4.248269e+01 8.364693e+00 1.355907e+02
         vertex 4.248269e+01 1.534025e+01 1.345907e+02
      endloop
   endfacet
   facet normal 1.000000e+00 0.000000e+00 0.000000e+00
      outer loop
         vertex 4.248269e+01 1.534025e+01 1.345907e+02
         vertex 4.248269e+01 8.364693e+00 1.355907e+02
         vertex 4.248269e+01 8.364693e+00 1.345907e+02
      endloop
   endfacet
   facet normal -0.000000e+00 1.000000e+00 0.000000e+00
      outer loop
         vertex 4.248269e+01 8.364693e+00 1.355907e+02
         vertex 4.480788e+01 8.364693e+00 1.355907e+02
         vertex 4.248269e+01 8.364693e+00 1.345907e+02
      endloop
   endfacet
   facet normal 0.000000e+00 1.000000e+00 0.000000e+00
      outer loop
         vertex 4.248269e+01 8.364693e+00 1.345907e+02
         vertex 4.480788e+01 8.364693e+00 1.355907e+02
         vertex 4.480788e+01 8.364693e+00 1.345907e+02
      endloop
   endfacet
   facet normal -1.000000e+00 0.000000e+00 0.000000e+00
      outer loop
         vertex 4.480788e+01 8.364693e+00 1.355907e+02
         vertex 4.480788e+01 1.339010e+01 1.355907e+02
         vertex 4.480788e+01 8.364693e+00 1.345907e+02
      endloop
   endfacet
   facet normal -1.000000e+00 0.000000e+00 0.000000e+00
      outer loop
         vertex 4.480788e+01 8.364693e+00 1.345907e+02
         vertex 4.480788e+01 1.339010e+01 1.355907e+02
         vertex 4.480788e+01 1.339010e+01 1.345907e+02
      endloop
   endfacet
   facet normal -0.000000e+00 1.000000e+00 0.000000e+00
      outer loop
         vertex 4.480788e+01 1.339010e+01 1.355907e+02
         vertex 4.679554e+01 1.339010e+01 1.355907e+02
         vertex 4.480788e+01 1.339010e+01 1.345907e+02
      endloop
   endfacet
   facet normal 0.000000e+00 1.000000e+00 0.000000e+00
      outer loop
         vertex 4.480788e+01 1.339010e+01 1.345907e+02
         vertex 4.679554e+01 1.339010e+01 1.355907e+02
         vertex 4.679554e+01 1.339010e+01 1.345907e+02
      endloop
   endfacet
   facet normal -7.003409e-01 -7.138085e-01 -0.000000e+00
      outer loop
         vertex 4.679554e+01 1.339010e+01 1.355907e+02
         vertex 4.480788e+01 1.534025e+01 1.355907e+02
         vertex 4.679554e+01 1.339010e+01 1.345907e+02
      endloop
   endfacet
   facet normal -7.003409e-01 -7.138085e-01 0.000000e+00
      outer loop
         vertex 4.679554e+01 1.339010e+01 1.345907e+02
         vertex 4.480788e+01 1.534025e+01 1.355907e+02
         vertex 4.480788e+01 1.534025e+01 1.345907e+02
      endloop
   endfacet
   facet normal 0.000000e+00 0.000000e+00 -1.000000e+00
      outer loop
         vertex 4.480788e+01 8.364693e+00 1.355907e+02
         vertex 4.248269e+01 8.364693e+00 1.355907e+02
         vertex 4.480788e+01 1.339010e+01 1.355907e+02
      endloop
   endfacet
   facet normal -0.000000e+00 0.000000e+00 -1.000000e+00
      outer loop
         vertex 4.480788e+01 1.339010e+01 1.355907e+02
         vertex 4.248269e+01 8.364693e+00 1.355907e+02
         vertex 4.248269e+01 1.534025e+01 1.355907e+02
      endloop
   endfacet
   facet normal 0.000000e+00 0.000000e+00 -1.000000e+00
      outer loop
         vertex 4.480788e+01 1.339010e+01 1.355907e+02
         vertex 4.248269e+01 1.534025e+01 1.355907e+02
         vertex 4.679554e+01 1.339010e+01 1.355907e+02
      endloop
   endfacet
   facet normal 0.000000e+00 0.000000e+00 -1.000000e+00
      outer loop
         vertex 4.679554e+01 1.339010e+01 1.355907e+02
         vertex 4.248269e+01 1.534025e+01 1.355907e+02
         vertex 4.480788e+01 1.534025e+01 1.355907e+02
      endloop
   endfacet
   facet normal -5.955305e-01 5.391580e-01 5.955267e-01
      outer loop
         vertex 1.000000e+01 8.790000e+00 1.433706e+02
         vertex 1.044410e+01 8.790000e+00 1.438147e+02
         vertex 1.040000e+01 9.190000e+00 1.434085e+02
      endloop
   endfacet
   facet normal -7.071090e-01 0.000000e+00 7.071046e-01
      outer loop
         vertex 1.000000e+01 8.790000e+00 1.433706e+02
         vertex 1.000000e+01 6.590000e+00 1.433706e+02
         vertex 1.044410e+01 8.790000e+00 1.438147e+02
      endloop
   endfacet
   facet normal -7.071126e-01 1.464958e-06 7.071009e-01
      outer loop
         vertex 1.044410e+01 8.790000e+00 1.438147e+02
         vertex 1.000000e+01 6.590000e+00 1.433706e+02
         vertex 1.040000e+01 6.190000e+00 1.437707e+02
      endloop
   endfacet
   facet normal -7.070694e-01 0.000000e+00 7.071441e-01
      outer loop
         vertex 1.044410e+01 8.790000e+00 1.438147e+02
         vertex 1.040000e+01 6.190000e+00 1.437707e+02
         vertex 1.044410e+01 6.190000e+00 1.438147e+02
      endloop
   endfacet
   facet normal 6.542107e-02 7.035966e-01 7.075818e-01
      outer loop
         vertex 3.620705e+01 8.790000e+00 1.440250e+02
         vertex 3.939738e+01 8.790000e+00 1.437300e+02
         vertex 3.900000e+01 9.153349e+00 1.434055e+02
      endloop
   endfacet
   facet normal -5.842253e-02 7.081600e-01 7.036308e-01
      outer loop
         vertex 1.475602e+01 9.190000e+00 1.437702e+02
         vertex 1.040000e+01 9.190000e+00 1.434085e+02
         vertex 1.044410e+01 8.790000e+00 1.438147e+02
      endloop
   endfacet
   facet normal -5.830968e-02 7.070669e-01 7.047385e-01
      outer loop
         vertex 1.044410e+01 8.790000e+00 1.438147e+02
         vertex 1.472897e+01 8.790000e+00 1.441693e+02
         vertex 1.475602e+01 9.190000e+00 1.437702e+02
      endloop
   endfacet
   facet normal -3.731360e-02 7.070669e-01 7.061615e-01
      outer loop
         vertex 1.475602e+01 9.190000e+00 1.437702e+02
         vertex 1.472897e+01 8.790000e+00 1.441693e+02
         vertex 1.902250e+01 8.790000e+00 1.443961e+02
      endloop
   endfacet
   facet normal -3.731407e-02 7.070649e-01 7.061635e-01
      outer loop
         vertex 1.475602e+01 9.190000e+00 1.437702e+02
         vertex 1.902250e+01 8.790000e+00 1.443961e+02
         vertex 1.903766e+01 9.190000e+00 1.439964e+02
      endloop
   endfacet
   facet normal -1.629058e-02 7.070649e-01 7.069610e-01
      outer loop
         vertex 1.903766e+01 9.190000e+00 1.439964e+02
         vertex 1.902250e+01 8.790000e+00 1.443961e+02
         vertex 2.332088e+01 8.790000e+00 1.444952e+02
      endloop
   endfacet
   facet normal -1.628893e-02 7.070728e-01 7.069531e-01
      outer loop
         vertex 1.903766e+01 9.190000e+00 1.439964e+02
         vertex 2.332088e+01 8.790000e+00 1.444952e+02
         vertex 2.332414e+01 9.190000e+00 1.440952e+02
      endloop
   endfacet
   facet normal 4.749632e-03 7.070728e-01 7.071248e-01
      outer loop
         vertex 2.332414e+01 9.190000e+00 1.440952e+02
         vertex 2.332088e+01 8.790000e+00 1.444952e+02
         vertex 2.762030e+01 8.790000e+00 1.444663e+02
      endloop
   endfacet
   facet normal 4.750495e-03 7.070777e-01 7.071200e-01
      outer loop
         vertex 2.332414e+01 9.190000e+00 1.440952e+02
         vertex 2.762030e+01 8.790000e+00 1.444663e+02
         vertex 2.761166e+01 9.190000e+00 1.440664e+02
      endloop
   endfacet
   facet normal 2.578704e-02 7.070776e-01 7.066656e-01
      outer loop
         vertex 2.761166e+01 9.190000e+00 1.440664e+02
         vertex 2.762030e+01 8.790000e+00 1.444663e+02
         vertex 3.191696e+01 8.790000e+00 1.443095e+02
      endloop
   endfacet
   facet normal 2.578531e-02 7.070661e-01 7.066772e-01
      outer loop
         vertex 2.761166e+01 9.190000e+00 1.440664e+02
         vertex 3.191696e+01 8.790000e+00 1.443095e+02
         vertex 3.189643e+01 9.190000e+00 1.439101e+02
      endloop
   endfacet
   facet normal 4.679828e-02 7.070661e-01 7.055972e-01
      outer loop
         vertex 3.189643e+01 9.190000e+00 1.439101e+02
         vertex 3.191696e+01 8.790000e+00 1.443095e+02
         vertex 3.620705e+01 8.790000e+00 1.440250e+02
      endloop
   endfacet
   facet normal 4.679806e-02 7.070643e-01 7.055991e-01
      outer loop
         vertex 3.189643e+01 9.190000e+00 1.439101e+02
         vertex 3.620705e+01 8.790000e+00 1.440250e+02
         vertex 3.617465e+01 9.190000e+00 1.436263e+02
      endloop
   endfacet
   facet normal 6.421807e-02 7.070863e-01 7.042052e-01
      outer loop
         vertex 3.617465e+01 9.190000e+00 1.436263e+02
         vertex 3.620705e+01 8.790000e+00 1.440250e+02
         vertex 3.900000e+01 9.153349e+00 1.434055e+02
      endloop
   endfacet
   facet normal 6.419599e-02 7.074256e-01 7.038663e-01
      outer loop
         vertex 3.617465e+01 9.190000e+00 1.436263e+02
         vertex 3.900000e+01 9.153349e+00 1.434055e+02
         vertex 3.900000e+01 9.190000e+00 1.433686e+02
      endloop
   endfacet
   facet normal -7.071068e-01 7.071068e-01 0.000000e+00
      outer loop
         vertex 1.040000e+01 9.190000e+00 1.375907e+02
         vertex 1.000000e+01 8.790000e+00 1.371907e+02
         vertex 1.040000e+01 9.190000e+00 1.434085e+02
      endloop
   endfacet
   facet normal -7.071068e-01 7.071068e-01 0.000000e+00
      outer loop
         vertex 1.040000e+01 9.190000e+00 1.434085e+02
         vertex 1.000000e+01 8.790000e+00 1.371907e+02
         vertex 1.000000e+01 8.790000e+00 1.433706e+02
      endloop
   endfacet
   facet normal -7.071072e-01 -7.071064e-01 0.000000e+00
      outer loop
         vertex 1.000000e+01 6.590000e+00 1.349907e+02
         vertex 1.040000e+01 6.190000e+00 1.345907e+02
         vertex 1.000000e+01 6.590000e+00 1.433706e+02
      endloop
   endfacet
   facet normal -7.071072e-01 -7.071064e-01 0.000000e+00
      outer loop
         vertex 1.000000e+01 6.590000e+00 1.433706e+02
         vertex 1.040000e+01 6.190000e+00 1.345907e+02
         vertex 1.040000e+01 6.190000e+00 1.437707e+02
      endloop
   endfacet
   facet normal -6.325789e-01 0.000000e+00 7.744960e-01
      outer loop
         vertex 3.939738e+01 1.559000e+01 1.437300e+02
         vertex 3.900000e+01 1.522665e+01 1.434055e+02
         vertex 3.939738e+01 8.790000e+00 1.437300e+02
      endloop
   endfacet
   facet normal -6.325789e-01 0.000000e+00 7.744960e-01
      outer loop
         vertex 3.939738e+01 8.790000e+00 1.437300e+02
         vertex 3.900000e+01 1.522665e+01 1.434055e+02
         vertex 3.900000e+01 9.153349e+00 1.434055e+02
      endloop
   endfacet
   facet normal -7.071002e-01 0.000000e+00 7.071134e-01
      outer loop
         vertex 1.040000e+01 1.519000e+01 1.375907e+02
         vertex 1.000000e+01 1.559000e+01 1.371907e+02
         vertex 1.040000e+01 9.190000e+00 1.375907e+02
      endloop
   endfacet
   facet normal -7.071002e-01 0.000000e+00 7.071134e-01
      outer loop
         vertex 1.040000e+01 9.190000e+00 1.375907e+02
         vertex 1.000000e+01 1.559000e+01 1.371907e+02
         vertex 1.000000e+01 8.790000e+00 1.371907e+02
      endloop
   endfacet
   facet normal -7.071002e-01 -0.000000e+00 -7.071134e-01
      outer loop
         vertex 1.000000e+01 1.779000e+01 1.349907e+02
         vertex 1.040000e+01 1.819000e+01 1.345907e+02
         vertex 1.000000e+01 6.590000e+00 1.349907e+02
      endloop
   endfacet
   facet normal -7.071002e-01 0.000000e+00 -7.071134e-01
      outer loop
         vertex 1.000000e+01 6.590000e+00 1.349907e+02
         vertex 1.040000e+01 1.819000e+01 1.345907e+02
         vertex 1.040000e+01 6.190000e+00 1.345907e+02
      endloop
   endfacet
   facet normal 6.542107e-02 -7.035966e-01 7.075818e-01
      outer loop
         vertex 3.900000e+01 1.522665e+01 1.434055e+02
         vertex 3.939738e+01 1.559000e+01 1.437300e+02
         vertex 3.620705e+01 1.559000e+01 1.440250e+02
      endloop
   endfacet
   facet normal -5.821786e-02 -7.081788e-01 7.036288e-01
      outer loop
         vertex 1.472897e+01 1.559000e+01 1.441693e+02
         vertex 1.044410e+01 1.559000e+01 1.438147e+02
         vertex 1.040000e+01 1.519000e+01 1.434085e+02
      endloop
   endfacet
   facet normal -5.851330e-02 -7.070645e-01 7.047240e-01
      outer loop
         vertex 1.040000e+01 1.519000e+01 1.434085e+02
         vertex 1.475602e+01 1.519000e+01 1.437702e+02
         vertex 1.472897e+01 1.559000e+01 1.441693e+02
      endloop
   endfacet
   facet normal -3.731401e-02 -7.070661e-01 7.061623e-01
      outer loop
         vertex 1.472897e+01 1.559000e+01 1.441693e+02
         vertex 1.475602e+01 1.519000e+01 1.437702e+02
         vertex 1.903766e+01 1.519000e+01 1.439964e+02
      endloop
   endfacet
   facet normal -3.731375e-02 -7.070641e-01 7.061643e-01
      outer loop
         vertex 1.472897e+01 1.559000e+01 1.441693e+02
         vertex 1.903766e+01 1.519000e+01 1.439964e+02
         vertex 1.902250e+01 1.559000e+01 1.443961e+02
      endloop
   endfacet
   facet normal -1.628913e-02 -7.070641e-01 7.069618e-01
      outer loop
         vertex 1.902250e+01 1.559000e+01 1.443961e+02
         vertex 1.903766e+01 1.519000e+01 1.439964e+02
         vertex 2.332414e+01 1.519000e+01 1.440952e+02
      endloop
   endfacet
   facet normal -1.629042e-02 -7.070720e-01 7.069539e-01
      outer loop
         vertex 1.902250e+01 1.559000e+01 1.443961e+02
         vertex 2.332414e+01 1.519000e+01 1.440952e+02
         vertex 2.332088e+01 1.559000e+01 1.444952e+02
      endloop
   endfacet
   facet normal 4.750533e-03 -7.070720e-01 7.071256e-01
      outer loop
         vertex 2.332088e+01 1.559000e+01 1.444952e+02
         vertex 2.332414e+01 1.519000e+01 1.440952e+02
         vertex 2.761166e+01 1.519000e+01 1.440664e+02
      endloop
   endfacet
   facet normal 4.749605e-03 -7.070768e-01 7.071208e-01
      outer loop
         vertex 2.332088e+01 1.559000e+01 1.444952e+02
         vertex 2.761166e+01 1.519000e+01 1.440664e+02
         vertex 2.762030e+01 1.559000e+01 1.444663e+02
      endloop
   endfacet
   facet normal 2.578492e-02 -7.070768e-01 7.066665e-01
      outer loop
         vertex 2.762030e+01 1.559000e+01 1.444663e+02
         vertex 2.761166e+01 1.519000e+01 1.440664e+02
         vertex 3.189643e+01 1.519000e+01 1.439101e+02
      endloop
   endfacet
   facet normal 2.578749e-02 -7.070653e-01 7.066779e-01
      outer loop
         vertex 2.762030e+01 1.559000e+01 1.444663e+02
         vertex 3.189643e+01 1.519000e+01 1.439101e+02
         vertex 3.191696e+01 1.559000e+01 1.443095e+02
      endloop
   endfacet
   facet normal 4.679799e-02 -7.070653e-01 7.055980e-01
      outer loop
         vertex 3.191696e+01 1.559000e+01 1.443095e+02
         vertex 3.189643e+01 1.519000e+01 1.439101e+02
         vertex 3.617465e+01 1.519000e+01 1.436263e+02
      endloop
   endfacet
   facet normal 4.679846e-02 -7.070635e-01 7.055999e-01
      outer loop
         vertex 3.191696e+01 1.559000e+01 1.443095e+02
         vertex 3.617465e+01 1.519000e+01 1.436263e+02
         vertex 3.620705e+01 1.559000e+01 1.440250e+02
      endloop
   endfacet
   facet normal 6.422690e-02 -7.070855e-01 7.042053e-01
      outer loop
         vertex 3.620705e+01 1.559000e+01 1.440250e+02
         vertex 3.617465e+01 1.519000e+01 1.436263e+02
         vertex 3.900000e+01 1.519000e+01 1.433686e+02
      endloop
   endfacet
   facet normal 6.410231e-02 -7.074210e-01 7.038796e-01
      outer loop
         vertex 3.620705e+01 1.559000e+01 1.440250e+02
         vertex 3.900000e+01 1.519000e+01 1.433686e+02
         vertex 3.900000e+01 1.522665e+01 1.434055e+02
      endloop
   endfacet
   facet normal -7.071076e-01 -7.071060e-01 -0.000000e+00
      outer loop
         vertex 1.040000e+01 1.519000e+01 1.434085e+02
         vertex 1.000000e+01 1.559000e+01 1.433706e+02
         vertex 1.040000e+01 1.519000e+01 1.375907e+02
      endloop
   endfacet
   facet normal -7.071076e-01 -7.071060e-01 0.000000e+00
      outer loop
         vertex 1.040000e+01 1.519000e+01 1.375907e+02
         vertex 1.000000e+01 1.559000e+01 1.433706e+02
         vertex 1.000000e+01 1.559000e+01 1.371907e+02
      endloop
   endfacet
   facet normal -7.071068e-01 7.071068e-01 0.000000e+00
      outer loop
         vertex 1.000000e+01 1.779000e+01 1.433706e+02
         vertex 1.040000e+01 1.819000e+01 1.437707e+02
         vertex 1.000000e+01 1.779000e+01 1.349907e+02
      endloop
   endfacet
   facet normal -7.071068e-01 7.071068e-01 0.000000e+00
      outer loop
         vertex 1.000000e+01 1.779000e+01 1.349907e+02
         vertex 1.040000e+01 1.819000e+01 1.437707e+02
         vertex 1.040000e+01 1.819000e+01 1.345907e+02
      endloop
   endfacet
   facet normal -5.955309e-01 -5.391571e-01 5.955271e-01
      outer loop
         vertex 1.040000e+01 1.519000e+01 1.434085e+02
         vertex 1.044410e+01 1.559000e+01 1.438147e+02
         vertex 1.000000e+01 1.559000e+01 1.433706e+02
      endloop
   endfacet
   facet normal -7.071134e-01 0.000000e+00 7.071002e-01
      outer loop
         vertex 1.000000e+01 1.779000e+01 1.433706e+02
         vertex 1.000000e+01 1.559000e+01 1.433706e+02
         vertex 1.040000e+01 1.819000e+01 1.437707e+02
      endloop
   endfacet
   facet normal -7.071090e-01 -1.341879e-06 7.071046e-01
      outer loop
         vertex 1.040000e+01 1.819000e+01 1.437707e+02
         vertex 1.000000e+01 1.559000e+01 1.433706e+02
         vertex 1.044410e+01 1.559000e+01 1.438147e+02
      endloop
   endfacet
   facet normal -7.070694e-01 0.000000e+00 7.071441e-01
      outer loop
         vertex 1.040000e+01 1.819000e+01 1.437707e+02
         vertex 1.044410e+01 1.559000e+01 1.438147e+02
         vertex 1.044410e+01 1.819000e+01 1.438147e+02
      endloop
   endfacet
endsolid front_logic_lens_sanding_guide_one