solid front_logic_lens_round_sanding_guide_2
   facet normal -0.000000e+00 0.000000e+00 1.000000e+00
      outer loop
         vertex 5.000000e+00 1.764000e+01 1.377907e+02
         vertex 5.000000e+00 1.174000e+01 1.377907e+02
         vertex 3.350000e+01 1.764000e+01 1.377907e+02
      endloop
   endfacet
   facet normal 0.000000e+00 0.000000e+00 1.000000e+00
      outer loop
         vertex 3.350000e+01 1.764000e+01 1.377907e+02
         vertex 5.000000e+00 1.174000e+01 1.377907e+02
         vertex 3.350000e+01 1.174000e+01 1.377907e+02
      endloop
   endfacet
   facet normal 9.993126e-02 0.000000e+00 9.949943e-01
      outer loop
         vertex 3.370000e+01 1.219000e+01 1.427706e+02
         vertex 3.350000e+01 1.239000e+01 1.427907e+02
         vertex 3.350000e+01 1.154000e+01 1.427907e+02
      endloop
   endfacet
   facet normal 1.025863e-01 -8.252836e-04 9.947238e-01
      outer loop
         vertex 3.370000e+01 1.219000e+01 1.427706e+02
         vertex 3.350000e+01 1.154000e+01 1.427907e+02
         vertex 3.424010e+01 1.219000e+01 1.427149e+02
      endloop
   endfacet
   facet normal 8.957836e-02 -5.102710e-03 9.959667e-01
      outer loop
         vertex 2.996679e+01 9.740000e+00 1.430993e+02
         vertex 3.424010e+01 9.740000e+00 1.427149e+02
         vertex 3.350000e+01 1.154000e+01 1.427907e+02
      endloop
   endfacet
   facet normal 1.018690e-01 0.000000e+00 9.947978e-01
      outer loop
         vertex 3.350000e+01 1.154000e+01 1.427907e+02
         vertex 3.424010e+01 9.740000e+00 1.427149e+02
         vertex 3.424010e+01 1.219000e+01 1.427149e+02
      endloop
   endfacet
   facet normal 1.193189e-01 0.000000e+00 9.928560e-01
      outer loop
         vertex 3.424010e+01 1.219000e+01 1.427149e+02
         vertex 3.424010e+01 9.740000e+00 1.427149e+02
         vertex 3.850000e+01 9.740000e+00 1.422030e+02
      endloop
   endfacet
   facet normal 1.193189e-01 0.000000e+00 9.928560e-01
      outer loop
         vertex 3.424010e+01 1.219000e+01 1.427149e+02
         vertex 3.850000e+01 9.740000e+00 1.422030e+02
         vertex 3.850000e+01 1.219000e+01 1.422030e+02
      endloop
   endfacet
   facet normal -1.193189e-01 0.000000e+00 9.928560e-01
      outer loop
         vertex 4.259902e+00 1.219000e+01 1.427149e+02
         vertex 0.000000e+00 1.219000e+01 1.422030e+02
         vertex 4.259902e+00 9.740000e+00 1.427149e+02
      endloop
   endfacet
   facet normal -1.193189e-01 0.000000e+00 9.928560e-01
      outer loop
         vertex 4.259902e+00 9.740000e+00 1.427149e+02
         vertex 0.000000e+00 1.219000e+01 1.422030e+02
         vertex 0.000000e+00 9.740000e+00 1.422030e+02
      endloop
   endfacet
   facet normal -8.699822e-02 -6.172950e-03 9.961893e-01
      outer loop
         vertex 8.533205e+00 1.154000e+01 1.430993e+02
         vertex 5.000000e+00 1.154000e+01 1.427907e+02
         vertex 4.259902e+00 9.740000e+00 1.427149e+02
      endloop
   endfacet
   facet normal -1.025863e-01 0.000000e+00 9.947241e-01
      outer loop
         vertex 4.259902e+00 1.219000e+01 1.427149e+02
         vertex 4.259902e+00 9.740000e+00 1.427149e+02
         vertex 4.800000e+00 1.219000e+01 1.427706e+02
      endloop
   endfacet
   facet normal -1.010397e-01 -3.445322e-04 9.948823e-01
      outer loop
         vertex 4.800000e+00 1.219000e+01 1.427706e+02
         vertex 4.259902e+00 9.740000e+00 1.427149e+02
         vertex 5.000000e+00 1.154000e+01 1.427907e+02
      endloop
   endfacet
   facet normal -9.993126e-02 0.000000e+00 9.949943e-01
      outer loop
         vertex 4.800000e+00 1.219000e+01 1.427706e+02
         vertex 5.000000e+00 1.154000e+01 1.427907e+02
         vertex 5.000000e+00 1.239000e+01 1.427907e+02
      endloop
   endfacet
   facet normal -8.957953e-02 0.000000e+00 9.959797e-01
      outer loop
         vertex 4.259902e+00 9.740000e+00 1.427149e+02
         vertex 8.533205e+00 9.740000e+00 1.430993e+02
         vertex 8.533205e+00 1.154000e+01 1.430993e+02
      endloop
   endfacet
   facet normal -5.976713e-02 0.000000e+00 9.982123e-01
      outer loop
         vertex 8.533205e+00 1.154000e+01 1.430993e+02
         vertex 8.533205e+00 9.740000e+00 1.430993e+02
         vertex 1.281609e+01 9.740000e+00 1.433557e+02
      endloop
   endfacet
   facet normal -5.976713e-02 0.000000e+00 9.982123e-01
      outer loop
         vertex 8.533205e+00 1.154000e+01 1.430993e+02
         vertex 1.281609e+01 9.740000e+00 1.433557e+02
         vertex 1.281609e+01 1.154000e+01 1.433557e+02
      endloop
   endfacet
   facet normal -2.989573e-02 0.000000e+00 9.995530e-01
      outer loop
         vertex 1.281609e+01 1.154000e+01 1.433557e+02
         vertex 1.281609e+01 9.740000e+00 1.433557e+02
         vertex 1.710472e+01 9.740000e+00 1.434840e+02
      endloop
   endfacet
   facet normal -2.989573e-02 0.000000e+00 9.995530e-01
      outer loop
         vertex 1.281609e+01 1.154000e+01 1.433557e+02
         vertex 1.710472e+01 9.740000e+00 1.434840e+02
         vertex 1.710472e+01 1.154000e+01 1.434840e+02
      endloop
   endfacet
   facet normal 0.000000e+00 0.000000e+00 1.000000e+00
      outer loop
         vertex 1.710472e+01 1.154000e+01 1.434840e+02
         vertex 1.710472e+01 9.740000e+00 1.434840e+02
         vertex 2.139528e+01 9.740000e+00 1.434840e+02
      endloop
   endfacet
   facet normal -0.000000e+00 0.000000e+00 1.000000e+00
      outer loop
         vertex 1.710472e+01 1.154000e+01 1.434840e+02
         vertex 2.139528e+01 9.740000e+00 1.434840e+02
         vertex 2.139528e+01 1.154000e+01 1.434840e+02
      endloop
   endfacet
   facet normal 2.989573e-02 0.000000e+00 9.995530e-01
      outer loop
         vertex 2.139528e+01 1.154000e+01 1.434840e+02
         vertex 2.139528e+01 9.740000e+00 1.434840e+02
         vertex 2.568391e+01 9.740000e+00 1.433557e+02
      endloop
   endfacet
   facet normal 2.989573e-02 0.000000e+00 9.995530e-01
      outer loop
         vertex 2.139528e+01 1.154000e+01 1.434840e+02
         vertex 2.568391e+01 9.740000e+00 1.433557e+02
         vertex 2.568391e+01 1.154000e+01 1.433557e+02
      endloop
   endfacet
   facet normal 5.976713e-02 0.000000e+00 9.982123e-01
      outer loop
         vertex 2.568391e+01 1.154000e+01 1.433557e+02
         vertex 2.568391e+01 9.740000e+00 1.433557e+02
         vertex 2.996679e+01 9.740000e+00 1.430993e+02
      endloop
   endfacet
   facet normal 5.976713e-02 0.000000e+00 9.982123e-01
      outer loop
         vertex 2.568391e+01 1.154000e+01 1.433557e+02
         vertex 2.996679e+01 9.740000e+00 1.430993e+02
         vertex 2.996679e+01 1.154000e+01 1.430993e+02
      endloop
   endfacet
   facet normal 8.699987e-02 0.000000e+00 9.962083e-01
      outer loop
         vertex 2.996679e+01 1.154000e+01 1.430993e+02
         vertex 2.996679e+01 9.740000e+00 1.430993e+02
         vertex 3.350000e+01 1.154000e+01 1.427907e+02
      endloop
   endfacet
   facet normal 0.000000e+00 -1.000000e+00 0.000000e+00
      outer loop
         vertex 2.996679e+01 9.740000e+00 1.430993e+02
         vertex 3.850000e+01 9.740000e+00 1.349907e+02
         vertex 3.424010e+01 9.740000e+00 1.427149e+02
      endloop
   endfacet
   facet normal 0.000000e+00 -1.000000e+00 0.000000e+00
      outer loop
         vertex 3.424010e+01 9.740000e+00 1.427149e+02
         vertex 3.850000e+01 9.740000e+00 1.349907e+02
         vertex 3.850000e+01 9.740000e+00 1.422030e+02
      endloop
   endfacet
   facet normal 0.000000e+00 -1.000000e+00 0.000000e+00
      outer loop
         vertex 1.281609e+01 9.740000e+00 1.433557e+02
         vertex 8.533205e+00 9.740000e+00 1.430993e+02
         vertex 0.000000e+00 9.740000e+00 1.349907e+02
      endloop
   endfacet
   facet normal 0.000000e+00 -1.000000e+00 0.000000e+00
      outer loop
         vertex 0.000000e+00 9.740000e+00 1.349907e+02
         vertex 8.533205e+00 9.740000e+00 1.430993e+02
         vertex 4.259902e+00 9.740000e+00 1.427149e+02
      endloop
   endfacet
   facet normal 0.000000e+00 -1.000000e+00 0.000000e+00
      outer loop
         vertex 0.000000e+00 9.740000e+00 1.349907e+02
         vertex 4.259902e+00 9.740000e+00 1.427149e+02
         vertex 0.000000e+00 9.740000e+00 1.422030e+02
      endloop
   endfacet
   facet normal -0.000000e+00 -1.000000e+00 -0.000000e+00
      outer loop
         vertex 2.996679e+01 9.740000e+00 1.430993e+02
         vertex 2.568391e+01 9.740000e+00 1.433557e+02
         vertex 3.850000e+01 9.740000e+00 1.349907e+02
      endloop
   endfacet
   facet normal 0.000000e+00 -1.000000e+00 0.000000e+00
      outer loop
         vertex 3.850000e+01 9.740000e+00 1.349907e+02
         vertex 2.568391e+01 9.740000e+00 1.433557e+02
         vertex 2.139528e+01 9.740000e+00 1.434840e+02
      endloop
   endfacet
   facet normal 0.000000e+00 -1.000000e+00 0.000000e+00
      outer loop
         vertex 3.850000e+01 9.740000e+00 1.349907e+02
         vertex 2.139528e+01 9.740000e+00 1.434840e+02
         vertex 0.000000e+00 9.740000e+00 1.349907e+02
      endloop
   endfacet
   facet normal 0.000000e+00 -1.000000e+00 0.000000e+00
      outer loop
         vertex 0.000000e+00 9.740000e+00 1.349907e+02
         vertex 2.139528e+01 9.740000e+00 1.434840e+02
         vertex 1.710472e+01 9.740000e+00 1.434840e+02
      endloop
   endfacet
   facet normal 0.000000e+00 -1.000000e+00 0.000000e+00
      outer loop
         vertex 0.000000e+00 9.740000e+00 1.349907e+02
         vertex 1.710472e+01 9.740000e+00 1.434840e+02
         vertex 1.281609e+01 9.740000e+00 1.433557e+02
      endloop
   endfacet
   facet normal 0.000000e+00 1.000000e+00 0.000000e+00
      outer loop
         vertex 2.995186e+01 1.174000e+01 1.428998e+02
         vertex 3.350000e+01 1.174000e+01 1.425897e+02
         vertex 3.350000e+01 1.174000e+01 1.377907e+02
      endloop
   endfacet
   facet normal 0.000000e+00 1.000000e+00 0.000000e+00
      outer loop
         vertex 2.995186e+01 1.174000e+01 1.428998e+02
         vertex 3.350000e+01 1.174000e+01 1.377907e+02
         vertex 2.567494e+01 1.174000e+01 1.431559e+02
      endloop
   endfacet
   facet normal 0.000000e+00 1.000000e+00 0.000000e+00
      outer loop
         vertex 5.000000e+00 1.174000e+01 1.377907e+02
         vertex 5.000000e+00 1.174000e+01 1.425897e+02
         vertex 8.548141e+00 1.174000e+01 1.428998e+02
      endloop
   endfacet
   facet normal -0.000000e+00 1.000000e+00 0.000000e+00
      outer loop
         vertex 8.548141e+00 1.174000e+01 1.428998e+02
         vertex 1.282506e+01 1.174000e+01 1.431559e+02
         vertex 5.000000e+00 1.174000e+01 1.377907e+02
      endloop
   endfacet
   facet normal 0.000000e+00 1.000000e+00 0.000000e+00
      outer loop
         vertex 5.000000e+00 1.174000e+01 1.377907e+02
         vertex 1.282506e+01 1.174000e+01 1.431559e+02
         vertex 1.710771e+01 1.174000e+01 1.432840e+02
      endloop
   endfacet
   facet normal 0.000000e+00 1.000000e+00 0.000000e+00
      outer loop
         vertex 5.000000e+00 1.174000e+01 1.377907e+02
         vertex 1.710771e+01 1.174000e+01 1.432840e+02
         vertex 3.350000e+01 1.174000e+01 1.377907e+02
      endloop
   endfacet
   facet normal 0.000000e+00 1.000000e+00 0.000000e+00
      outer loop
         vertex 3.350000e+01 1.174000e+01 1.377907e+02
         vertex 1.710771e+01 1.174000e+01 1.432840e+02
         vertex 2.139229e+01 1.174000e+01 1.432840e+02
      endloop
   endfacet
   facet normal 0.000000e+00 1.000000e+00 0.000000e+00
      outer loop
         vertex 3.350000e+01 1.174000e+01 1.377907e+02
         vertex 2.139229e+01 1.174000e+01 1.432840e+02
         vertex 2.567494e+01 1.174000e+01 1.431559e+02
      endloop
   endfacet
   facet normal 0.000000e+00 0.000000e+00 -1.000000e+00
      outer loop
         vertex 2.019929e+00 1.471116e+01 1.347907e+02
         vertex 4.816436e+00 1.232185e+01 1.347907e+02
         vertex 2.019929e+00 1.232185e+01 1.347907e+02
      endloop
   endfacet
   facet normal -0.000000e+00 -0.000000e+00 -1.000000e+00
      outer loop
         vertex 2.019929e+00 1.688414e+01 1.347907e+02
         vertex 2.019929e+00 1.471116e+01 1.347907e+02
         vertex 1.999997e-01 1.979000e+01 1.347907e+02
      endloop
   endfacet
   facet normal 0.000000e+00 0.000000e+00 -1.000000e+00
      outer loop
         vertex 1.999997e-01 1.979000e+01 1.347907e+02
         vertex 2.019929e+00 1.471116e+01 1.347907e+02
         vertex 2.019929e+00 1.232185e+01 1.347907e+02
      endloop
   endfacet
   facet normal 0.000000e+00 0.000000e+00 -1.000000e+00
      outer loop
         vertex 1.999997e-01 1.979000e+01 1.347907e+02
         vertex 2.019929e+00 1.232185e+01 1.347907e+02
         vertex 1.999997e-01 9.940000e+00 1.347907e+02
      endloop
   endfacet
   facet normal 0.000000e+00 -0.000000e+00 -1.000000e+00
      outer loop
         vertex 3.830000e+01 1.979000e+01 1.347907e+02
         vertex 3.830000e+01 9.940000e+00 1.347907e+02
         vertex 6.712014e+00 1.563419e+01 1.347907e+02
      endloop
   endfacet
   facet normal 0.000000e+00 -0.000000e+00 -1.000000e+00
      outer loop
         vertex 3.635237e+00 1.655723e+01 1.347907e+02
         vertex 4.583910e+00 1.655723e+01 1.347907e+02
         vertex 2.895219e+00 1.589943e+01 1.347907e+02
      endloop
   endfacet
   facet normal 0.000000e+00 0.000000e+00 -1.000000e+00
      outer loop
         vertex 2.895219e+00 1.589943e+01 1.347907e+02
         vertex 4.583910e+00 1.655723e+01 1.347907e+02
         vertex 5.404384e+00 1.563419e+01 1.347907e+02
      endloop
   endfacet
   facet normal 0.000000e+00 0.000000e+00 -1.000000e+00
      outer loop
         vertex 2.895219e+00 1.589943e+01 1.347907e+02
         vertex 5.404384e+00 1.563419e+01 1.347907e+02
         vertex 6.737654e+00 1.232185e+01 1.347907e+02
      endloop
   endfacet
   facet normal 0.000000e+00 -0.000000e+00 -1.000000e+00
      outer loop
         vertex 2.019929e+00 1.232185e+01 1.347907e+02
         vertex 2.019929e+00 1.142927e+01 1.347907e+02
         vertex 1.999997e-01 9.940000e+00 1.347907e+02
      endloop
   endfacet
   facet normal 0.000000e+00 0.000000e+00 -1.000000e+00
      outer loop
         vertex 1.999997e-01 9.940000e+00 1.347907e+02
         vertex 2.019929e+00 1.142927e+01 1.347907e+02
         vertex 6.737654e+00 1.142927e+01 1.347907e+02
      endloop
   endfacet
   facet normal 0.000000e+00 0.000000e+00 -1.000000e+00
      outer loop
         vertex 1.999997e-01 9.940000e+00 1.347907e+02
         vertex 6.737654e+00 1.142927e+01 1.347907e+02
         vertex 3.830000e+01 9.940000e+00 1.347907e+02
      endloop
   endfacet
   facet normal 0.000000e+00 0.000000e+00 -1.000000e+00
      outer loop
         vertex 3.830000e+01 9.940000e+00 1.347907e+02
         vertex 6.737654e+00 1.142927e+01 1.347907e+02
         vertex 6.737654e+00 1.232185e+01 1.347907e+02
      endloop
   endfacet
   facet normal 0.000000e+00 0.000000e+00 -1.000000e+00
      outer loop
         vertex 3.830000e+01 9.940000e+00 1.347907e+02
         vertex 6.737654e+00 1.232185e+01 1.347907e+02
         vertex 6.712014e+00 1.563419e+01 1.347907e+02
      endloop
   endfacet
   facet normal -0.000000e+00 -0.000000e+00 -1.000000e+00
      outer loop
         vertex 6.712014e+00 1.563419e+01 1.347907e+02
         vertex 6.737654e+00 1.232185e+01 1.347907e+02
         vertex 5.404384e+00 1.563419e+01 1.347907e+02
      endloop
   endfacet
   facet normal 0.000000e+00 0.000000e+00 -1.000000e+00
      outer loop
         vertex 6.712014e+00 1.563419e+01 1.347907e+02
         vertex 6.712014e+00 1.690148e+01 1.347907e+02
         vertex 3.830000e+01 1.979000e+01 1.347907e+02
      endloop
   endfacet
   facet normal 0.000000e+00 0.000000e+00 -1.000000e+00
      outer loop
         vertex 3.830000e+01 1.979000e+01 1.347907e+02
         vertex 6.712014e+00 1.690148e+01 1.347907e+02
         vertex 4.994147e+00 1.806345e+01 1.347907e+02
      endloop
   endfacet
   facet normal -0.000000e+00 0.000000e+00 -1.000000e+00
      outer loop
         vertex 3.830000e+01 1.979000e+01 1.347907e+02
         vertex 4.994147e+00 1.806345e+01 1.347907e+02
         vertex 1.999997e-01 1.979000e+01 1.347907e+02
      endloop
   endfacet
   facet normal 0.000000e+00 0.000000e+00 -1.000000e+00
      outer loop
         vertex 1.999997e-01 1.979000e+01 1.347907e+02
         vertex 4.994147e+00 1.806345e+01 1.347907e+02
         vertex 3.027523e+00 1.806345e+01 1.347907e+02
      endloop
   endfacet
   facet normal 0.000000e+00 0.000000e+00 -1.000000e+00
      outer loop
         vertex 1.999997e-01 1.979000e+01 1.347907e+02
         vertex 3.027523e+00 1.806345e+01 1.347907e+02
         vertex 2.019929e+00 1.688414e+01 1.347907e+02
      endloop
   endfacet
   facet normal -0.000000e+00 1.000000e+00 0.000000e+00
      outer loop
         vertex 0.000000e+00 1.999000e+01 1.422030e+02
         vertex 4.259902e+00 1.999000e+01 1.427149e+02
         vertex 0.000000e+00 1.999000e+01 1.349907e+02
      endloop
   endfacet
   facet normal 0.000000e+00 1.000000e+00 0.000000e+00
      outer loop
         vertex 0.000000e+00 1.999000e+01 1.349907e+02
         vertex 4.259902e+00 1.999000e+01 1.427149e+02
         vertex 8.533205e+00 1.999000e+01 1.430993e+02
      endloop
   endfacet
   facet normal 0.000000e+00 1.000000e+00 0.000000e+00
      outer loop
         vertex 2.568391e+01 1.999000e+01 1.433557e+02
         vertex 2.996679e+01 1.999000e+01 1.430993e+02
         vertex 3.850000e+01 1.999000e+01 1.349907e+02
      endloop
   endfacet
   facet normal 0.000000e+00 1.000000e+00 0.000000e+00
      outer loop
         vertex 3.850000e+01 1.999000e+01 1.349907e+02
         vertex 2.996679e+01 1.999000e+01 1.430993e+02
         vertex 3.424010e+01 1.999000e+01 1.427149e+02
      endloop
   endfacet
   facet normal 0.000000e+00 1.000000e+00 -0.000000e+00
      outer loop
         vertex 3.850000e+01 1.999000e+01 1.349907e+02
         vertex 3.424010e+01 1.999000e+01 1.427149e+02
         vertex 3.850000e+01 1.999000e+01 1.422030e+02
      endloop
   endfacet
   facet normal -0.000000e+00 1.000000e+00 0.000000e+00
      outer loop
         vertex 8.533205e+00 1.999000e+01 1.430993e+02
         vertex 1.281609e+01 1.999000e+01 1.433557e+02
         vertex 0.000000e+00 1.999000e+01 1.349907e+02
      endloop
   endfacet
   facet normal 0.000000e+00 1.000000e+00 0.000000e+00
      outer loop
         vertex 0.000000e+00 1.999000e+01 1.349907e+02
         vertex 1.281609e+01 1.999000e+01 1.433557e+02
         vertex 1.710472e+01 1.999000e+01 1.434840e+02
      endloop
   endfacet
   facet normal 0.000000e+00 1.000000e+00 0.000000e+00
      outer loop
         vertex 0.000000e+00 1.999000e+01 1.349907e+02
         vertex 1.710472e+01 1.999000e+01 1.434840e+02
         vertex 3.850000e+01 1.999000e+01 1.349907e+02
      endloop
   endfacet
   facet normal 0.000000e+00 1.000000e+00 0.000000e+00
      outer loop
         vertex 3.850000e+01 1.999000e+01 1.349907e+02
         vertex 1.710472e+01 1.999000e+01 1.434840e+02
         vertex 2.139528e+01 1.999000e+01 1.434840e+02
      endloop
   endfacet
   facet normal 0.000000e+00 1.000000e+00 0.000000e+00
      outer loop
         vertex 3.850000e+01 1.999000e+01 1.349907e+02
         vertex 2.139528e+01 1.999000e+01 1.434840e+02
         vertex 2.568391e+01 1.999000e+01 1.433557e+02
      endloop
   endfacet
   facet normal -9.993126e-02 0.000000e+00 9.949943e-01
      outer loop
         vertex 4.800000e+00 1.719000e+01 1.427706e+02
         vertex 5.000000e+00 1.699000e+01 1.427907e+02
         vertex 5.000000e+00 1.784000e+01 1.427907e+02
      endloop
   endfacet
   facet normal -1.025863e-01 8.252836e-04 9.947238e-01
      outer loop
         vertex 4.800000e+00 1.719000e+01 1.427706e+02
         vertex 5.000000e+00 1.784000e+01 1.427907e+02
         vertex 4.259902e+00 1.719000e+01 1.427149e+02
      endloop
   endfacet
   facet normal -8.957871e-02 4.272052e-03 9.959706e-01
      outer loop
         vertex 8.533205e+00 1.999000e+01 1.430993e+02
         vertex 4.259902e+00 1.999000e+01 1.427149e+02
         vertex 5.000000e+00 1.784000e+01 1.427907e+02
      endloop
   endfacet
   facet normal -1.018690e-01 0.000000e+00 9.947978e-01
      outer loop
         vertex 5.000000e+00 1.784000e+01 1.427907e+02
         vertex 4.259902e+00 1.999000e+01 1.427149e+02
         vertex 4.259902e+00 1.719000e+01 1.427149e+02
      endloop
   endfacet
   facet normal -1.193189e-01 0.000000e+00 9.928560e-01
      outer loop
         vertex 4.259902e+00 1.719000e+01 1.427149e+02
         vertex 4.259902e+00 1.999000e+01 1.427149e+02
         vertex 0.000000e+00 1.999000e+01 1.422030e+02
      endloop
   endfacet
   facet normal -1.193189e-01 0.000000e+00 9.928560e-01
      outer loop
         vertex 4.259902e+00 1.719000e+01 1.427149e+02
         vertex 0.000000e+00 1.999000e+01 1.422030e+02
         vertex 0.000000e+00 1.719000e+01 1.422030e+02
      endloop
   endfacet
   facet normal 1.193189e-01 0.000000e+00 9.928560e-01
      outer loop
         vertex 3.850000e+01 1.999000e+01 1.422030e+02
         vertex 3.424010e+01 1.999000e+01 1.427149e+02
         vertex 3.850000e+01 1.719000e+01 1.422030e+02
      endloop
   endfacet
   facet normal 1.193189e-01 0.000000e+00 9.928560e-01
      outer loop
         vertex 3.850000e+01 1.719000e+01 1.422030e+02
         vertex 3.424010e+01 1.999000e+01 1.427149e+02
         vertex 3.424010e+01 1.719000e+01 1.427149e+02
      endloop
   endfacet
   facet normal 8.699871e-02 5.168080e-03 9.961950e-01
      outer loop
         vertex 2.996679e+01 1.784000e+01 1.430993e+02
         vertex 3.350000e+01 1.784000e+01 1.427907e+02
         vertex 3.424010e+01 1.999000e+01 1.427149e+02
      endloop
   endfacet
   facet normal 1.025863e-01 -0.000000e+00 9.947241e-01
      outer loop
         vertex 3.424010e+01 1.719000e+01 1.427149e+02
         vertex 3.424010e+01 1.999000e+01 1.427149e+02
         vertex 3.370000e+01 1.719000e+01 1.427706e+02
      endloop
   endfacet
   facet normal 1.009546e-01 3.180635e-04 9.948910e-01
      outer loop
         vertex 3.370000e+01 1.719000e+01 1.427706e+02
         vertex 3.424010e+01 1.999000e+01 1.427149e+02
         vertex 3.350000e+01 1.784000e+01 1.427907e+02
      endloop
   endfacet
   facet normal 9.993126e-02 0.000000e+00 9.949943e-01
      outer loop
         vertex 3.370000e+01 1.719000e+01 1.427706e+02
         vertex 3.350000e+01 1.784000e+01 1.427907e+02
         vertex 3.350000e+01 1.699000e+01 1.427907e+02
      endloop
   endfacet
   facet normal -8.699987e-02 0.000000e+00 9.962083e-01
      outer loop
         vertex 5.000000e+00 1.784000e+01 1.427907e+02
         vertex 8.533205e+00 1.784000e+01 1.430993e+02
         vertex 8.533205e+00 1.999000e+01 1.430993e+02
      endloop
   endfacet
   facet normal -5.976713e-02 0.000000e+00 9.982123e-01
      outer loop
         vertex 8.533205e+00 1.999000e+01 1.430993e+02
         vertex 8.533205e+00 1.784000e+01 1.430993e+02
         vertex 1.281609e+01 1.784000e+01 1.433557e+02
      endloop
   endfacet
   facet normal -5.976713e-02 0.000000e+00 9.982123e-01
      outer loop
         vertex 8.533205e+00 1.999000e+01 1.430993e+02
         vertex 1.281609e+01 1.784000e+01 1.433557e+02
         vertex 1.281609e+01 1.999000e+01 1.433557e+02
      endloop
   endfacet
   facet normal -2.989573e-02 0.000000e+00 9.995530e-01
      outer loop
         vertex 1.281609e+01 1.999000e+01 1.433557e+02
         vertex 1.281609e+01 1.784000e+01 1.433557e+02
         vertex 1.710472e+01 1.784000e+01 1.434840e+02
      endloop
   endfacet
   facet normal -2.989573e-02 0.000000e+00 9.995530e-01
      outer loop
         vertex 1.281609e+01 1.999000e+01 1.433557e+02
         vertex 1.710472e+01 1.784000e+01 1.434840e+02
         vertex 1.710472e+01 1.999000e+01 1.434840e+02
      endloop
   endfacet
   facet normal 0.000000e+00 0.000000e+00 1.000000e+00
      outer loop
         vertex 1.710472e+01 1.999000e+01 1.434840e+02
         vertex 1.710472e+01 1.784000e+01 1.434840e+02
         vertex 2.139528e+01 1.784000e+01 1.434840e+02
      endloop
   endfacet
   facet normal -0.000000e+00 0.000000e+00 1.000000e+00
      outer loop
         vertex 1.710472e+01 1.999000e+01 1.434840e+02
         vertex 2.139528e+01 1.784000e+01 1.434840e+02
         vertex 2.139528e+01 1.999000e+01 1.434840e+02
      endloop
   endfacet
   facet normal 2.989573e-02 0.000000e+00 9.995530e-01
      outer loop
         vertex 2.139528e+01 1.999000e+01 1.434840e+02
         vertex 2.139528e+01 1.784000e+01 1.434840e+02
         vertex 2.568391e+01 1.784000e+01 1.433557e+02
      endloop
   endfacet
   facet normal 2.989573e-02 0.000000e+00 9.995530e-01
      outer loop
         vertex 2.139528e+01 1.999000e+01 1.434840e+02
         vertex 2.568391e+01 1.784000e+01 1.433557e+02
         vertex 2.568391e+01 1.999000e+01 1.433557e+02
      endloop
   endfacet
   facet normal 5.976713e-02 0.000000e+00 9.982123e-01
      outer loop
         vertex 2.568391e+01 1.999000e+01 1.433557e+02
         vertex 2.568391e+01 1.784000e+01 1.433557e+02
         vertex 2.996679e+01 1.784000e+01 1.430993e+02
      endloop
   endfacet
   facet normal 5.976713e-02 0.000000e+00 9.982123e-01
      outer loop
         vertex 2.568391e+01 1.999000e+01 1.433557e+02
         vertex 2.996679e+01 1.784000e+01 1.430993e+02
         vertex 2.996679e+01 1.999000e+01 1.430993e+02
      endloop
   endfacet
   facet normal 8.957953e-02 0.000000e+00 9.959797e-01
      outer loop
         vertex 2.996679e+01 1.999000e+01 1.430993e+02
         vertex 2.996679e+01 1.784000e+01 1.430993e+02
         vertex 3.424010e+01 1.999000e+01 1.427149e+02
      endloop
   endfacet
   facet normal 0.000000e+00 -1.000000e+00 0.000000e+00
      outer loop
         vertex 8.548141e+00 1.764000e+01 1.428998e+02
         vertex 5.000000e+00 1.764000e+01 1.425897e+02
         vertex 5.000000e+00 1.764000e+01 1.377907e+02
      endloop
   endfacet
   facet normal 0.000000e+00 -1.000000e+00 -0.000000e+00
      outer loop
         vertex 8.548141e+00 1.764000e+01 1.428998e+02
         vertex 5.000000e+00 1.764000e+01 1.377907e+02
         vertex 1.282506e+01 1.764000e+01 1.431559e+02
      endloop
   endfacet
   facet normal 0.000000e+00 -1.000000e+00 0.000000e+00
      outer loop
         vertex 3.350000e+01 1.764000e+01 1.377907e+02
         vertex 3.350000e+01 1.764000e+01 1.425897e+02
         vertex 2.995186e+01 1.764000e+01 1.428998e+02
      endloop
   endfacet
   facet normal -0.000000e+00 -1.000000e+00 -0.000000e+00
      outer loop
         vertex 2.995186e+01 1.764000e+01 1.428998e+02
         vertex 2.567494e+01 1.764000e+01 1.431559e+02
         vertex 3.350000e+01 1.764000e+01 1.377907e+02
      endloop
   endfacet
   facet normal 0.000000e+00 -1.000000e+00 0.000000e+00
      outer loop
         vertex 3.350000e+01 1.764000e+01 1.377907e+02
         vertex 2.567494e+01 1.764000e+01 1.431559e+02
         vertex 2.139229e+01 1.764000e+01 1.432840e+02
      endloop
   endfacet
   facet normal 0.000000e+00 -1.000000e+00 0.000000e+00
      outer loop
         vertex 3.350000e+01 1.764000e+01 1.377907e+02
         vertex 2.139229e+01 1.764000e+01 1.432840e+02
         vertex 5.000000e+00 1.764000e+01 1.377907e+02
      endloop
   endfacet
   facet normal 0.000000e+00 -1.000000e+00 0.000000e+00
      outer loop
         vertex 5.000000e+00 1.764000e+01 1.377907e+02
         vertex 2.139229e+01 1.764000e+01 1.432840e+02
         vertex 1.710771e+01 1.764000e+01 1.432840e+02
      endloop
   endfacet
   facet normal 0.000000e+00 -1.000000e+00 0.000000e+00
      outer loop
         vertex 5.000000e+00 1.764000e+01 1.377907e+02
         vertex 1.710771e+01 1.764000e+01 1.432840e+02
         vertex 1.282506e+01 1.764000e+01 1.431559e+02
      endloop
   endfacet
   facet normal 1.000000e+00 0.000000e+00 -0.000000e+00
      outer loop
         vertex 5.000000e+00 1.764000e+01 1.425897e+02
         vertex 5.000000e+00 1.784000e+01 1.427907e+02
         vertex 5.000000e+00 1.699000e+01 1.427907e+02
      endloop
   endfacet
   facet normal 1.000000e+00 0.000000e+00 0.000000e+00
      outer loop
         vertex 5.000000e+00 1.699000e+01 1.529277e+02
         vertex 5.000000e+00 1.239000e+01 1.529277e+02
         vertex 5.000000e+00 1.699000e+01 1.427907e+02
      endloop
   endfacet
   facet normal 1.000000e+00 0.000000e+00 0.000000e+00
      outer loop
         vertex 5.000000e+00 1.699000e+01 1.427907e+02
         vertex 5.000000e+00 1.239000e+01 1.529277e+02
         vertex 5.000000e+00 1.239000e+01 1.427907e+02
      endloop
   endfacet
   facet normal 1.000000e+00 -0.000000e+00 0.000000e+00
      outer loop
         vertex 5.000000e+00 1.154000e+01 1.427907e+02
         vertex 5.000000e+00 1.174000e+01 1.425897e+02
         vertex 5.000000e+00 1.239000e+01 1.427907e+02
      endloop
   endfacet
   facet normal 1.000000e+00 0.000000e+00 0.000000e+00
      outer loop
         vertex 5.000000e+00 1.239000e+01 1.427907e+02
         vertex 5.000000e+00 1.174000e+01 1.425897e+02
         vertex 5.000000e+00 1.174000e+01 1.377907e+02
      endloop
   endfacet
   facet normal 1.000000e+00 -0.000000e+00 0.000000e+00
      outer loop
         vertex 5.000000e+00 1.239000e+01 1.427907e+02
         vertex 5.000000e+00 1.174000e+01 1.377907e+02
         vertex 5.000000e+00 1.699000e+01 1.427907e+02
      endloop
   endfacet
   facet normal 1.000000e+00 0.000000e+00 0.000000e+00
      outer loop
         vertex 5.000000e+00 1.699000e+01 1.427907e+02
         vertex 5.000000e+00 1.174000e+01 1.377907e+02
         vertex 5.000000e+00 1.764000e+01 1.377907e+02
      endloop
   endfacet
   facet normal 1.000000e+00 0.000000e+00 0.000000e+00
      outer loop
         vertex 5.000000e+00 1.699000e+01 1.427907e+02
         vertex 5.000000e+00 1.764000e+01 1.377907e+02
         vertex 5.000000e+00 1.764000e+01 1.425897e+02
      endloop
   endfacet
   facet normal 0.000000e+00 1.000000e+00 0.000000e+00
      outer loop
         vertex 0.000000e+00 1.719000e+01 1.422030e+02
         vertex 0.000000e+00 1.719000e+01 1.527277e+02
         vertex 4.259902e+00 1.719000e+01 1.427149e+02
      endloop
   endfacet
   facet normal 0.000000e+00 1.000000e+00 -0.000000e+00
      outer loop
         vertex 4.259902e+00 1.719000e+01 1.427149e+02
         vertex 0.000000e+00 1.719000e+01 1.527277e+02
         vertex 4.800000e+00 1.719000e+01 1.527277e+02
      endloop
   endfacet
   facet normal 0.000000e+00 1.000000e+00 0.000000e+00
      outer loop
         vertex 4.259902e+00 1.719000e+01 1.427149e+02
         vertex 4.800000e+00 1.719000e+01 1.527277e+02
         vertex 4.800000e+00 1.719000e+01 1.427706e+02
      endloop
   endfacet
   facet normal 0.000000e+00 -1.000000e+00 0.000000e+00
      outer loop
         vertex 0.000000e+00 1.219000e+01 1.527277e+02
         vertex 0.000000e+00 1.219000e+01 1.422030e+02
         vertex 4.800000e+00 1.219000e+01 1.527277e+02
      endloop
   endfacet
   facet normal 0.000000e+00 -1.000000e+00 0.000000e+00
      outer loop
         vertex 4.800000e+00 1.219000e+01 1.527277e+02
         vertex 0.000000e+00 1.219000e+01 1.422030e+02
         vertex 4.259902e+00 1.219000e+01 1.427149e+02
      endloop
   endfacet
   facet normal 0.000000e+00 -1.000000e+00 -0.000000e+00
      outer loop
         vertex 4.800000e+00 1.219000e+01 1.527277e+02
         vertex 4.259902e+00 1.219000e+01 1.427149e+02
         vertex 4.800000e+00 1.219000e+01 1.427706e+02
      endloop
   endfacet
   facet normal -0.000000e+00 0.000000e+00 1.000000e+00
      outer loop
         vertex 0.000000e+00 1.699000e+01 1.529277e+02
         vertex 0.000000e+00 1.239000e+01 1.529277e+02
         vertex 5.000000e+00 1.699000e+01 1.529277e+02
      endloop
   endfacet
   facet normal 0.000000e+00 0.000000e+00 1.000000e+00
      outer loop
         vertex 5.000000e+00 1.699000e+01 1.529277e+02
         vertex 0.000000e+00 1.239000e+01 1.529277e+02
         vertex 5.000000e+00 1.239000e+01 1.529277e+02
      endloop
   endfacet
   facet normal -1.000000e+00 0.000000e+00 0.000000e+00
      outer loop
         vertex 0.000000e+00 9.740000e+00 1.349907e+02
         vertex 0.000000e+00 9.740000e+00 1.422030e+02
         vertex 0.000000e+00 1.999000e+01 1.349907e+02
      endloop
   endfacet
   facet normal -1.000000e+00 0.000000e+00 0.000000e+00
      outer loop
         vertex 0.000000e+00 1.999000e+01 1.349907e+02
         vertex 0.000000e+00 9.740000e+00 1.422030e+02
         vertex 0.000000e+00 1.219000e+01 1.422030e+02
      endloop
   endfacet
   facet normal -1.000000e+00 -0.000000e+00 -0.000000e+00
      outer loop
         vertex 0.000000e+00 1.999000e+01 1.422030e+02
         vertex 0.000000e+00 1.999000e+01 1.349907e+02
         vertex 0.000000e+00 1.719000e+01 1.422030e+02
      endloop
   endfacet
   facet normal -1.000000e+00 -0.000000e+00 -0.000000e+00
      outer loop
         vertex 0.000000e+00 1.719000e+01 1.422030e+02
         vertex 0.000000e+00 1.999000e+01 1.349907e+02
         vertex 0.000000e+00 1.219000e+01 1.422030e+02
      endloop
   endfacet
   facet normal -1.000000e+00 0.000000e+00 0.000000e+00
      outer loop
         vertex 0.000000e+00 1.719000e+01 1.422030e+02
         vertex 0.000000e+00 1.219000e+01 1.422030e+02
         vertex 0.000000e+00 1.719000e+01 1.527277e+02
      endloop
   endfacet
   facet normal -1.000000e+00 -0.000000e+00 0.000000e+00
      outer loop
         vertex 0.000000e+00 1.719000e+01 1.527277e+02
         vertex 0.000000e+00 1.219000e+01 1.422030e+02
         vertex 0.000000e+00 1.219000e+01 1.527277e+02
      endloop
   endfacet
   facet normal -1.000000e+00 0.000000e+00 0.000000e+00
      outer loop
         vertex 0.000000e+00 1.719000e+01 1.527277e+02
         vertex 0.000000e+00 1.219000e+01 1.527277e+02
         vertex 0.000000e+00 1.699000e+01 1.529277e+02
      endloop
   endfacet
   facet normal -1.000000e+00 -0.000000e+00 0.000000e+00
      outer loop
         vertex 0.000000e+00 1.699000e+01 1.529277e+02
         vertex 0.000000e+00 1.219000e+01 1.527277e+02
         vertex 0.000000e+00 1.239000e+01 1.529277e+02
      endloop
   endfacet
   facet normal 0.000000e+00 1.000000e+00 0.000000e+00
      outer loop
         vertex 3.850000e+01 1.719000e+01 1.527277e+02
         vertex 3.850000e+01 1.719000e+01 1.422030e+02
         vertex 3.370000e+01 1.719000e+01 1.527277e+02
      endloop
   endfacet
   facet normal 0.000000e+00 1.000000e+00 0.000000e+00
      outer loop
         vertex 3.370000e+01 1.719000e+01 1.527277e+02
         vertex 3.850000e+01 1.719000e+01 1.422030e+02
         vertex 3.424010e+01 1.719000e+01 1.427149e+02
      endloop
   endfacet
   facet normal 0.000000e+00 1.000000e+00 0.000000e+00
      outer loop
         vertex 3.370000e+01 1.719000e+01 1.527277e+02
         vertex 3.424010e+01 1.719000e+01 1.427149e+02
         vertex 3.370000e+01 1.719000e+01 1.427706e+02
      endloop
   endfacet
   facet normal 0.000000e+00 -1.000000e+00 0.000000e+00
      outer loop
         vertex 3.850000e+01 1.219000e+01 1.422030e+02
         vertex 3.850000e+01 1.219000e+01 1.527277e+02
         vertex 3.424010e+01 1.219000e+01 1.427149e+02
      endloop
   endfacet
   facet normal 0.000000e+00 -1.000000e+00 0.000000e+00
      outer loop
         vertex 3.424010e+01 1.219000e+01 1.427149e+02
         vertex 3.850000e+01 1.219000e+01 1.527277e+02
         vertex 3.370000e+01 1.219000e+01 1.527277e+02
      endloop
   endfacet
   facet normal 0.000000e+00 -1.000000e+00 0.000000e+00
      outer loop
         vertex 3.424010e+01 1.219000e+01 1.427149e+02
         vertex 3.370000e+01 1.219000e+01 1.527277e+02
         vertex 3.370000e+01 1.219000e+01 1.427706e+02
      endloop
   endfacet
   facet normal 1.000000e+00 0.000000e+00 -0.000000e+00
      outer loop
         vertex 3.850000e+01 1.999000e+01 1.349907e+02
         vertex 3.850000e+01 1.999000e+01 1.422030e+02
         vertex 3.850000e+01 9.740000e+00 1.349907e+02
      endloop
   endfacet
   facet normal 1.000000e+00 0.000000e+00 0.000000e+00
      outer loop
         vertex 3.850000e+01 9.740000e+00 1.349907e+02
         vertex 3.850000e+01 1.999000e+01 1.422030e+02
         vertex 3.850000e+01 1.719000e+01 1.422030e+02
      endloop
   endfacet
   facet normal 1.000000e+00 0.000000e+00 0.000000e+00
      outer loop
         vertex 3.850000e+01 1.699000e+01 1.529277e+02
         vertex 3.850000e+01 1.239000e+01 1.529277e+02
         vertex 3.850000e+01 1.719000e+01 1.527277e+02
      endloop
   endfacet
   facet normal 1.000000e+00 0.000000e+00 0.000000e+00
      outer loop
         vertex 3.850000e+01 1.719000e+01 1.527277e+02
         vertex 3.850000e+01 1.239000e+01 1.529277e+02
         vertex 3.850000e+01 1.219000e+01 1.527277e+02
      endloop
   endfacet
   facet normal 1.000000e+00 0.000000e+00 0.000000e+00
      outer loop
         vertex 3.850000e+01 1.719000e+01 1.527277e+02
         vertex 3.850000e+01 1.219000e+01 1.527277e+02
         vertex 3.850000e+01 1.719000e+01 1.422030e+02
      endloop
   endfacet
   facet normal 1.000000e+00 0.000000e+00 0.000000e+00
      outer loop
         vertex 3.850000e+01 1.719000e+01 1.422030e+02
         vertex 3.850000e+01 1.219000e+01 1.527277e+02
         vertex 3.850000e+01 1.219000e+01 1.422030e+02
      endloop
   endfacet
   facet normal 1.000000e+00 0.000000e+00 0.000000e+00
      outer loop
         vertex 3.850000e+01 1.719000e+01 1.422030e+02
         vertex 3.850000e+01 1.219000e+01 1.422030e+02
         vertex 3.850000e+01 9.740000e+00 1.349907e+02
      endloop
   endfacet
   facet normal 1.000000e+00 0.000000e+00 0.000000e+00
      outer loop
         vertex 3.850000e+01 9.740000e+00 1.349907e+02
         vertex 3.850000e+01 1.219000e+01 1.422030e+02
         vertex 3.850000e+01 9.740000e+00 1.422030e+02
      endloop
   endfacet
   facet normal -0.000000e+00 0.000000e+00 1.000000e+00
      outer loop
         vertex 3.350000e+01 1.699000e+01 1.529277e+02
         vertex 3.350000e+01 1.239000e+01 1.529277e+02
         vertex 3.850000e+01 1.699000e+01 1.529277e+02
      endloop
   endfacet
   facet normal 0.000000e+00 0.000000e+00 1.000000e+00
      outer loop
         vertex 3.850000e+01 1.699000e+01 1.529277e+02
         vertex 3.350000e+01 1.239000e+01 1.529277e+02
         vertex 3.850000e+01 1.239000e+01 1.529277e+02
      endloop
   endfacet
   facet normal -1.000000e+00 0.000000e+00 -0.000000e+00
      outer loop
         vertex 3.350000e+01 1.764000e+01 1.425897e+02
         vertex 3.350000e+01 1.764000e+01 1.377907e+02
         vertex 3.350000e+01 1.174000e+01 1.377907e+02
      endloop
   endfacet
   facet normal -1.000000e+00 0.000000e+00 0.000000e+00
      outer loop
         vertex 3.350000e+01 1.239000e+01 1.529277e+02
         vertex 3.350000e+01 1.699000e+01 1.529277e+02
         vertex 3.350000e+01 1.239000e+01 1.427907e+02
      endloop
   endfacet
   facet normal -1.000000e+00 0.000000e+00 0.000000e+00
      outer loop
         vertex 3.350000e+01 1.239000e+01 1.427907e+02
         vertex 3.350000e+01 1.699000e+01 1.529277e+02
         vertex 3.350000e+01 1.699000e+01 1.427907e+02
      endloop
   endfacet
   facet normal -1.000000e+00 -0.000000e+00 0.000000e+00
      outer loop
         vertex 3.350000e+01 1.784000e+01 1.427907e+02
         vertex 3.350000e+01 1.764000e+01 1.425897e+02
         vertex 3.350000e+01 1.699000e+01 1.427907e+02
      endloop
   endfacet
   facet normal -1.000000e+00 0.000000e+00 -0.000000e+00
      outer loop
         vertex 3.350000e+01 1.699000e+01 1.427907e+02
         vertex 3.350000e+01 1.764000e+01 1.425897e+02
         vertex 3.350000e+01 1.174000e+01 1.377907e+02
      endloop
   endfacet
   facet normal -1.000000e+00 -0.000000e+00 0.000000e+00
      outer loop
         vertex 3.350000e+01 1.699000e+01 1.427907e+02
         vertex 3.350000e+01 1.174000e+01 1.377907e+02
         vertex 3.350000e+01 1.239000e+01 1.427907e+02
      endloop
   endfacet
   facet normal -1.000000e+00 0.000000e+00 0.000000e+00
      outer loop
         vertex 3.350000e+01 1.239000e+01 1.427907e+02
         vertex 3.350000e+01 1.174000e+01 1.377907e+02
         vertex 3.350000e+01 1.174000e+01 1.425897e+02
      endloop
   endfacet
   facet normal -1.000000e+00 -0.000000e+00 0.000000e+00
      outer loop
         vertex 3.350000e+01 1.239000e+01 1.427907e+02
         vertex 3.350000e+01 1.174000e+01 1.425897e+02
         vertex 3.350000e+01 1.154000e+01 1.427907e+02
      endloop
   endfacet
   facet normal -0.000000e+00 -7.070854e-01 -7.071282e-01
      outer loop
         vertex 3.830000e+01 9.940000e+00 1.347907e+02
         vertex 3.850000e+01 9.740000e+00 1.349907e+02
         vertex 1.999997e-01 9.940000e+00 1.347907e+02
      endloop
   endfacet
   facet normal 0.000000e+00 -7.070854e-01 -7.071282e-01
      outer loop
         vertex 1.999997e-01 9.940000e+00 1.347907e+02
         vertex 3.850000e+01 9.740000e+00 1.349907e+02
         vertex 0.000000e+00 9.740000e+00 1.349907e+02
      endloop
   endfacet
   facet normal 7.070870e-01 0.000000e+00 -7.071265e-01
      outer loop
         vertex 3.830000e+01 1.979000e+01 1.347907e+02
         vertex 3.850000e+01 1.999000e+01 1.349907e+02
         vertex 3.830000e+01 9.940000e+00 1.347907e+02
      endloop
   endfacet
   facet normal 7.070870e-01 0.000000e+00 -7.071265e-01
      outer loop
         vertex 3.830000e+01 9.940000e+00 1.347907e+02
         vertex 3.850000e+01 1.999000e+01 1.349907e+02
         vertex 3.850000e+01 9.740000e+00 1.349907e+02
      endloop
   endfacet
   facet normal -7.070870e-01 -0.000000e+00 -7.071265e-01
      outer loop
         vertex 0.000000e+00 1.999000e+01 1.349907e+02
         vertex 1.999997e-01 1.979000e+01 1.347907e+02
         vertex 0.000000e+00 9.740000e+00 1.349907e+02
      endloop
   endfacet
   facet normal -7.070870e-01 0.000000e+00 -7.071265e-01
      outer loop
         vertex 0.000000e+00 9.740000e+00 1.349907e+02
         vertex 1.999997e-01 1.979000e+01 1.347907e+02
         vertex 1.999997e-01 9.940000e+00 1.347907e+02
      endloop
   endfacet
   facet normal 0.000000e+00 7.070837e-01 -7.071298e-01
      outer loop
         vertex 1.999997e-01 1.979000e+01 1.347907e+02
         vertex 0.000000e+00 1.999000e+01 1.349907e+02
         vertex 3.830000e+01 1.979000e+01 1.347907e+02
      endloop
   endfacet
   facet normal 0.000000e+00 7.070837e-01 -7.071298e-01
      outer loop
         vertex 3.830000e+01 1.979000e+01 1.347907e+02
         vertex 0.000000e+00 1.999000e+01 1.349907e+02
         vertex 3.850000e+01 1.999000e+01 1.349907e+02
      endloop
   endfacet
   facet normal -7.071068e-01 7.071068e-01 0.000000e+00
      outer loop
         vertex 3.350000e+01 1.699000e+01 1.529277e+02
         vertex 3.370000e+01 1.719000e+01 1.527277e+02
         vertex 3.350000e+01 1.699000e+01 1.427907e+02
      endloop
   endfacet
   facet normal -7.071068e-01 7.071068e-01 0.000000e+00
      outer loop
         vertex 3.350000e+01 1.699000e+01 1.427907e+02
         vertex 3.370000e+01 1.719000e+01 1.527277e+02
         vertex 3.370000e+01 1.719000e+01 1.427706e+02
      endloop
   endfacet
   facet normal -0.000000e+00 7.071134e-01 7.071002e-01
      outer loop
         vertex 3.370000e+01 1.719000e+01 1.527277e+02
         vertex 3.350000e+01 1.699000e+01 1.529277e+02
         vertex 3.850000e+01 1.719000e+01 1.527277e+02
      endloop
   endfacet
   facet normal 0.000000e+00 7.071134e-01 7.071002e-01
      outer loop
         vertex 3.850000e+01 1.719000e+01 1.527277e+02
         vertex 3.350000e+01 1.699000e+01 1.529277e+02
         vertex 3.850000e+01 1.699000e+01 1.529277e+02
      endloop
   endfacet
   facet normal -7.071068e-01 -7.071068e-01 -0.000000e+00
      outer loop
         vertex 3.370000e+01 1.219000e+01 1.527277e+02
         vertex 3.350000e+01 1.239000e+01 1.529277e+02
         vertex 3.370000e+01 1.219000e+01 1.427706e+02
      endloop
   endfacet
   facet normal -7.071068e-01 -7.071068e-01 0.000000e+00
      outer loop
         vertex 3.370000e+01 1.219000e+01 1.427706e+02
         vertex 3.350000e+01 1.239000e+01 1.529277e+02
         vertex 3.350000e+01 1.239000e+01 1.427907e+02
      endloop
   endfacet
   facet normal 0.000000e+00 -7.071134e-01 7.071002e-01
      outer loop
         vertex 3.350000e+01 1.239000e+01 1.529277e+02
         vertex 3.370000e+01 1.219000e+01 1.527277e+02
         vertex 3.850000e+01 1.239000e+01 1.529277e+02
      endloop
   endfacet
   facet normal 0.000000e+00 -7.071134e-01 7.071002e-01
      outer loop
         vertex 3.850000e+01 1.239000e+01 1.529277e+02
         vertex 3.370000e+01 1.219000e+01 1.527277e+02
         vertex 3.850000e+01 1.219000e+01 1.527277e+02
      endloop
   endfacet
   facet normal 7.071068e-01 7.071068e-01 0.000000e+00
      outer loop
         vertex 4.800000e+00 1.719000e+01 1.527277e+02
         vertex 5.000000e+00 1.699000e+01 1.529277e+02
         vertex 4.800000e+00 1.719000e+01 1.427706e+02
      endloop
   endfacet
   facet normal 7.071068e-01 7.071068e-01 0.000000e+00
      outer loop
         vertex 4.800000e+00 1.719000e+01 1.427706e+02
         vertex 5.000000e+00 1.699000e+01 1.529277e+02
         vertex 5.000000e+00 1.699000e+01 1.427907e+02
      endloop
   endfacet
   facet normal -0.000000e+00 7.071134e-01 7.071002e-01
      outer loop
         vertex 0.000000e+00 1.719000e+01 1.527277e+02
         vertex 0.000000e+00 1.699000e+01 1.529277e+02
         vertex 4.800000e+00 1.719000e+01 1.527277e+02
      endloop
   endfacet
   facet normal 0.000000e+00 7.071134e-01 7.071002e-01
      outer loop
         vertex 4.800000e+00 1.719000e+01 1.527277e+02
         vertex 0.000000e+00 1.699000e+01 1.529277e+02
         vertex 5.000000e+00 1.699000e+01 1.529277e+02
      endloop
   endfacet
   facet normal 7.071068e-01 -7.071068e-01 0.000000e+00
      outer loop
         vertex 5.000000e+00 1.239000e+01 1.529277e+02
         vertex 4.800000e+00 1.219000e+01 1.527277e+02
         vertex 5.000000e+00 1.239000e+01 1.427907e+02
      endloop
   endfacet
   facet normal 7.071068e-01 -7.071068e-01 0.000000e+00
      outer loop
         vertex 5.000000e+00 1.239000e+01 1.427907e+02
         vertex 4.800000e+00 1.219000e+01 1.527277e+02
         vertex 4.800000e+00 1.219000e+01 1.427706e+02
      endloop
   endfacet
   facet normal 0.000000e+00 -7.071134e-01 7.071002e-01
      outer loop
         vertex 0.000000e+00 1.239000e+01 1.529277e+02
         vertex 0.000000e+00 1.219000e+01 1.527277e+02
         vertex 5.000000e+00 1.239000e+01 1.529277e+02
      endloop
   endfacet
   facet normal 0.000000e+00 -7.071134e-01 7.071002e-01
      outer loop
         vertex 5.000000e+00 1.239000e+01 1.529277e+02
         vertex 0.000000e+00 1.219000e+01 1.527277e+02
         vertex 4.800000e+00 1.219000e+01 1.527277e+02
      endloop
   endfacet
   facet normal 6.153208e-02 -7.075023e-01 7.040272e-01
      outer loop
         vertex 2.995186e+01 1.764000e+01 1.428998e+02
         vertex 3.350000e+01 1.764000e+01 1.425897e+02
         vertex 3.350000e+01 1.784000e+01 1.427907e+02
      endloop
   endfacet
   facet normal -6.148359e-02 -7.075044e-01 7.040293e-01
      outer loop
         vertex 8.533205e+00 1.784000e+01 1.430993e+02
         vertex 5.000000e+00 1.784000e+01 1.427907e+02
         vertex 5.000000e+00 1.764000e+01 1.425897e+02
      endloop
   endfacet
   facet normal -6.156952e-02 -7.070725e-01 7.044556e-01
      outer loop
         vertex 5.000000e+00 1.764000e+01 1.425897e+02
         vertex 8.548141e+00 1.764000e+01 1.428998e+02
         vertex 8.533205e+00 1.784000e+01 1.430993e+02
      endloop
   endfacet
   facet normal -4.226204e-02 -7.070602e-01 7.058893e-01
      outer loop
         vertex 8.533205e+00 1.784000e+01 1.430993e+02
         vertex 8.548141e+00 1.764000e+01 1.428998e+02
         vertex 1.282506e+01 1.764000e+01 1.431559e+02
      endloop
   endfacet
   facet normal -4.226293e-02 -7.070869e-01 7.058625e-01
      outer loop
         vertex 8.533205e+00 1.784000e+01 1.430993e+02
         vertex 1.282506e+01 1.764000e+01 1.431559e+02
         vertex 1.281609e+01 1.784000e+01 1.433557e+02
      endloop
   endfacet
   facet normal -2.114251e-02 -7.070870e-01 7.068105e-01
      outer loop
         vertex 1.281609e+01 1.784000e+01 1.433557e+02
         vertex 1.282506e+01 1.764000e+01 1.431559e+02
         vertex 1.710771e+01 1.764000e+01 1.432840e+02
      endloop
   endfacet
   facet normal -2.114085e-02 -7.070607e-01 7.068368e-01
      outer loop
         vertex 1.281609e+01 1.784000e+01 1.433557e+02
         vertex 1.710771e+01 1.764000e+01 1.432840e+02
         vertex 1.710472e+01 1.784000e+01 1.434840e+02
      endloop
   endfacet
   facet normal 0.000000e+00 -7.070607e-01 7.071529e-01
      outer loop
         vertex 1.710472e+01 1.784000e+01 1.434840e+02
         vertex 1.710771e+01 1.764000e+01 1.432840e+02
         vertex 2.139229e+01 1.764000e+01 1.432840e+02
      endloop
   endfacet
   facet normal 0.000000e+00 -7.070607e-01 7.071529e-01
      outer loop
         vertex 1.710472e+01 1.784000e+01 1.434840e+02
         vertex 2.139229e+01 1.764000e+01 1.432840e+02
         vertex 2.139528e+01 1.784000e+01 1.434840e+02
      endloop
   endfacet
   facet normal 2.114330e-02 -7.070607e-01 7.068367e-01
      outer loop
         vertex 2.139528e+01 1.784000e+01 1.434840e+02
         vertex 2.139229e+01 1.764000e+01 1.432840e+02
         vertex 2.567494e+01 1.764000e+01 1.431559e+02
      endloop
   endfacet
   facet normal 2.114006e-02 -7.070869e-01 7.068105e-01
      outer loop
         vertex 2.139528e+01 1.784000e+01 1.434840e+02
         vertex 2.567494e+01 1.764000e+01 1.431559e+02
         vertex 2.568391e+01 1.784000e+01 1.433557e+02
      endloop
   endfacet
   facet normal 4.226045e-02 -7.070869e-01 7.058627e-01
      outer loop
         vertex 2.568391e+01 1.784000e+01 1.433557e+02
         vertex 2.567494e+01 1.764000e+01 1.431559e+02
         vertex 2.995186e+01 1.764000e+01 1.428998e+02
      endloop
   endfacet
   facet normal 4.226453e-02 -7.070602e-01 7.058892e-01
      outer loop
         vertex 2.568391e+01 1.784000e+01 1.433557e+02
         vertex 2.995186e+01 1.764000e+01 1.428998e+02
         vertex 2.996679e+01 1.784000e+01 1.430993e+02
      endloop
   endfacet
   facet normal 6.152116e-02 -7.070728e-01 7.044595e-01
      outer loop
         vertex 2.996679e+01 1.784000e+01 1.430993e+02
         vertex 2.995186e+01 1.764000e+01 1.428998e+02
         vertex 3.350000e+01 1.784000e+01 1.427907e+02
      endloop
   endfacet
   facet normal -6.153208e-02 7.075023e-01 7.040272e-01
      outer loop
         vertex 8.548141e+00 1.174000e+01 1.428998e+02
         vertex 5.000000e+00 1.174000e+01 1.425897e+02
         vertex 5.000000e+00 1.154000e+01 1.427907e+02
      endloop
   endfacet
   facet normal 6.148359e-02 7.075044e-01 7.040293e-01
      outer loop
         vertex 2.996679e+01 1.154000e+01 1.430993e+02
         vertex 3.350000e+01 1.154000e+01 1.427907e+02
         vertex 3.350000e+01 1.174000e+01 1.425897e+02
      endloop
   endfacet
   facet normal 6.156952e-02 7.070725e-01 7.044556e-01
      outer loop
         vertex 3.350000e+01 1.174000e+01 1.425897e+02
         vertex 2.995186e+01 1.174000e+01 1.428998e+02
         vertex 2.996679e+01 1.154000e+01 1.430993e+02
      endloop
   endfacet
   facet normal 4.226204e-02 7.070602e-01 7.058893e-01
      outer loop
         vertex 2.996679e+01 1.154000e+01 1.430993e+02
         vertex 2.995186e+01 1.174000e+01 1.428998e+02
         vertex 2.567494e+01 1.174000e+01 1.431559e+02
      endloop
   endfacet
   facet normal 4.226293e-02 7.070869e-01 7.058625e-01
      outer loop
         vertex 2.996679e+01 1.154000e+01 1.430993e+02
         vertex 2.567494e+01 1.174000e+01 1.431559e+02
         vertex 2.568391e+01 1.154000e+01 1.433557e+02
      endloop
   endfacet
   facet normal 2.114251e-02 7.070870e-01 7.068105e-01
      outer loop
         vertex 2.568391e+01 1.154000e+01 1.433557e+02
         vertex 2.567494e+01 1.174000e+01 1.431559e+02
         vertex 2.139229e+01 1.174000e+01 1.432840e+02
      endloop
   endfacet
   facet normal 2.114085e-02 7.070607e-01 7.068368e-01
      outer loop
         vertex 2.568391e+01 1.154000e+01 1.433557e+02
         vertex 2.139229e+01 1.174000e+01 1.432840e+02
         vertex 2.139528e+01 1.154000e+01 1.434840e+02
      endloop
   endfacet
   facet normal 0.000000e+00 7.070607e-01 7.071529e-01
      outer loop
         vertex 2.139528e+01 1.154000e+01 1.434840e+02
         vertex 2.139229e+01 1.174000e+01 1.432840e+02
         vertex 1.710771e+01 1.174000e+01 1.432840e+02
      endloop
   endfacet
   facet normal 0.000000e+00 7.070607e-01 7.071529e-01
      outer loop
         vertex 2.139528e+01 1.154000e+01 1.434840e+02
         vertex 1.710771e+01 1.174000e+01 1.432840e+02
         vertex 1.710472e+01 1.154000e+01 1.434840e+02
      endloop
   endfacet
   facet normal -2.114330e-02 7.070607e-01 7.068367e-01
      outer loop
         vertex 1.710472e+01 1.154000e+01 1.434840e+02
         vertex 1.710771e+01 1.174000e+01 1.432840e+02
         vertex 1.282506e+01 1.174000e+01 1.431559e+02
      endloop
   endfacet
   facet normal -2.114006e-02 7.070869e-01 7.068105e-01
      outer loop
         vertex 1.710472e+01 1.154000e+01 1.434840e+02
         vertex 1.282506e+01 1.174000e+01 1.431559e+02
         vertex 1.281609e+01 1.154000e+01 1.433557e+02
      endloop
   endfacet
   facet normal -4.226045e-02 7.070869e-01 7.058627e-01
      outer loop
         vertex 1.281609e+01 1.154000e+01 1.433557e+02
         vertex 1.282506e+01 1.174000e+01 1.431559e+02
         vertex 8.548141e+00 1.174000e+01 1.428998e+02
      endloop
   endfacet
   facet normal -4.226453e-02 7.070602e-01 7.058892e-01
      outer loop
         vertex 1.281609e+01 1.154000e+01 1.433557e+02
         vertex 8.548141e+00 1.174000e+01 1.428998e+02
         vertex 8.533205e+00 1.154000e+01 1.430993e+02
      endloop
   endfacet
   facet normal -6.152116e-02 7.070728e-01 7.044595e-01
      outer loop
         vertex 8.533205e+00 1.154000e+01 1.430993e+02
         vertex 8.548141e+00 1.174000e+01 1.428998e+02
         vertex 5.000000e+00 1.154000e+01 1.427907e+02
      endloop
   endfacet
   facet normal -1.000000e+00 0.000000e+00 0.000000e+00
      outer loop
         vertex 6.712014e+00 1.563419e+01 1.357907e+02
         vertex 6.712014e+00 1.690148e+01 1.357907e+02
         vertex 6.712014e+00 1.563419e+01 1.347907e+02
      endloop
   endfacet
   facet normal -1.000000e+00 0.000000e+00 0.000000e+00
      outer loop
         vertex 6.712014e+00 1.563419e+01 1.347907e+02
         vertex 6.712014e+00 1.690148e+01 1.357907e+02
         vertex 6.712014e+00 1.690148e+01 1.347907e+02
      endloop
   endfacet
   facet normal -5.602708e-01 -8.283095e-01 -0.000000e+00
      outer loop
         vertex 6.712014e+00 1.690148e+01 1.357907e+02
         vertex 4.994147e+00 1.806345e+01 1.357907e+02
         vertex 6.712014e+00 1.690148e+01 1.347907e+02
      endloop
   endfacet
   facet normal -5.602708e-01 -8.283095e-01 0.000000e+00
      outer loop
         vertex 6.712014e+00 1.690148e+01 1.347907e+02
         vertex 4.994147e+00 1.806345e+01 1.357907e+02
         vertex 4.994147e+00 1.806345e+01 1.347907e+02
      endloop
   endfacet
   facet normal -0.000000e+00 -1.000000e+00 -0.000000e+00
      outer loop
         vertex 4.994147e+00 1.806345e+01 1.357907e+02
         vertex 3.027523e+00 1.806345e+01 1.357907e+02
         vertex 4.994147e+00 1.806345e+01 1.347907e+02
      endloop
   endfacet
   facet normal 0.000000e+00 -1.000000e+00 0.000000e+00
      outer loop
         vertex 4.994147e+00 1.806345e+01 1.347907e+02
         vertex 3.027523e+00 1.806345e+01 1.357907e+02
         vertex 3.027523e+00 1.806345e+01 1.347907e+02
      endloop
   endfacet
   facet normal 7.602896e-01 -6.495843e-01 0.000000e+00
      outer loop
         vertex 3.027523e+00 1.806345e+01 1.357907e+02
         vertex 2.019929e+00 1.688414e+01 1.357907e+02
         vertex 3.027523e+00 1.806345e+01 1.347907e+02
      endloop
   endfacet
   facet normal 7.602896e-01 -6.495843e-01 0.000000e+00
      outer loop
         vertex 3.027523e+00 1.806345e+01 1.347907e+02
         vertex 2.019929e+00 1.688414e+01 1.357907e+02
         vertex 2.019929e+00 1.688414e+01 1.347907e+02
      endloop
   endfacet
   facet normal 1.000000e+00 0.000000e+00 0.000000e+00
      outer loop
         vertex 2.019929e+00 1.688414e+01 1.357907e+02
         vertex 2.019929e+00 1.471116e+01 1.357907e+02
         vertex 2.019929e+00 1.688414e+01 1.347907e+02
      endloop
   endfacet
   facet normal 1.000000e+00 0.000000e+00 0.000000e+00
      outer loop
         vertex 2.019929e+00 1.688414e+01 1.347907e+02
         vertex 2.019929e+00 1.471116e+01 1.357907e+02
         vertex 2.019929e+00 1.471116e+01 1.347907e+02
      endloop
   endfacet
   facet normal 6.495843e-01 7.602896e-01 0.000000e+00
      outer loop
         vertex 2.019929e+00 1.471116e+01 1.357907e+02
         vertex 4.816436e+00 1.232185e+01 1.357907e+02
         vertex 2.019929e+00 1.471116e+01 1.347907e+02
      endloop
   endfacet
   facet normal 6.495843e-01 7.602896e-01 0.000000e+00
      outer loop
         vertex 2.019929e+00 1.471116e+01 1.347907e+02
         vertex 4.816436e+00 1.232185e+01 1.357907e+02
         vertex 4.816436e+00 1.232185e+01 1.347907e+02
      endloop
   endfacet
   facet normal -0.000000e+00 -1.000000e+00 -0.000000e+00
      outer loop
         vertex 4.816436e+00 1.232185e+01 1.357907e+02
         vertex 2.019929e+00 1.232185e+01 1.357907e+02
         vertex 4.816436e+00 1.232185e+01 1.347907e+02
      endloop
   endfacet
   facet normal 0.000000e+00 -1.000000e+00 0.000000e+00
      outer loop
         vertex 4.816436e+00 1.232185e+01 1.347907e+02
         vertex 2.019929e+00 1.232185e+01 1.357907e+02
         vertex 2.019929e+00 1.232185e+01 1.347907e+02
      endloop
   endfacet
   facet normal 1.000000e+00 0.000000e+00 0.000000e+00
      outer loop
         vertex 2.019929e+00 1.232185e+01 1.357907e+02
         vertex 2.019929e+00 1.142927e+01 1.357907e+02
         vertex 2.019929e+00 1.232185e+01 1.347907e+02
      endloop
   endfacet
   facet normal 1.000000e+00 0.000000e+00 0.000000e+00
      outer loop
         vertex 2.019929e+00 1.232185e+01 1.347907e+02
         vertex 2.019929e+00 1.142927e+01 1.357907e+02
         vertex 2.019929e+00 1.142927e+01 1.347907e+02
      endloop
   endfacet
   facet normal -0.000000e+00 1.000000e+00 0.000000e+00
      outer loop
         vertex 2.019929e+00 1.142927e+01 1.357907e+02
         vertex 6.737654e+00 1.142927e+01 1.357907e+02
         vertex 2.019929e+00 1.142927e+01 1.347907e+02
      endloop
   endfacet
   facet normal 0.000000e+00 1.000000e+00 0.000000e+00
      outer loop
         vertex 2.019929e+00 1.142927e+01 1.347907e+02
         vertex 6.737654e+00 1.142927e+01 1.357907e+02
         vertex 6.737654e+00 1.142927e+01 1.347907e+02
      endloop
   endfacet
   facet normal -1.000000e+00 0.000000e+00 0.000000e+00
      outer loop
         vertex 6.737654e+00 1.142927e+01 1.357907e+02
         vertex 6.737654e+00 1.232185e+01 1.357907e+02
         vertex 6.737654e+00 1.142927e+01 1.347907e+02
      endloop
   endfacet
   facet normal -1.000000e+00 0.000000e+00 0.000000e+00
      outer loop
         vertex 6.737654e+00 1.142927e+01 1.347907e+02
         vertex 6.737654e+00 1.232185e+01 1.357907e+02
         vertex 6.737654e+00 1.232185e+01 1.347907e+02
      endloop
   endfacet
   facet normal -6.814330e-01 -7.318805e-01 -0.000000e+00
      outer loop
         vertex 6.737654e+00 1.232185e+01 1.357907e+02
         vertex 2.895219e+00 1.589943e+01 1.357907e+02
         vertex 6.737654e+00 1.232185e+01 1.347907e+02
      endloop
   endfacet
   facet normal -6.814330e-01 -7.318805e-01 0.000000e+00
      outer loop
         vertex 6.737654e+00 1.232185e+01 1.347907e+02
         vertex 2.895219e+00 1.589943e+01 1.357907e+02
         vertex 2.895219e+00 1.589943e+01 1.347907e+02
      endloop
   endfacet
   facet normal -6.643647e-01 7.474086e-01 0.000000e+00
      outer loop
         vertex 2.895219e+00 1.589943e+01 1.357907e+02
         vertex 3.635237e+00 1.655723e+01 1.357907e+02
         vertex 2.895219e+00 1.589943e+01 1.347907e+02
      endloop
   endfacet
   facet normal -6.643647e-01 7.474086e-01 0.000000e+00
      outer loop
         vertex 2.895219e+00 1.589943e+01 1.347907e+02
         vertex 3.635237e+00 1.655723e+01 1.357907e+02
         vertex 3.635237e+00 1.655723e+01 1.347907e+02
      endloop
   endfacet
   facet normal -0.000000e+00 1.000000e+00 0.000000e+00
      outer loop
         vertex 3.635237e+00 1.655723e+01 1.357907e+02
         vertex 4.583910e+00 1.655723e+01 1.357907e+02
         vertex 3.635237e+00 1.655723e+01 1.347907e+02
      endloop
   endfacet
   facet normal 0.000000e+00 1.000000e+00 0.000000e+00
      outer loop
         vertex 3.635237e+00 1.655723e+01 1.347907e+02
         vertex 4.583910e+00 1.655723e+01 1.357907e+02
         vertex 4.583910e+00 1.655723e+01 1.347907e+02
      endloop
   endfacet
   facet normal 7.474096e-01 6.643635e-01 0.000000e+00
      outer loop
         vertex 4.583910e+00 1.655723e+01 1.357907e+02
         vertex 5.404384e+00 1.563419e+01 1.357907e+02
         vertex 4.583910e+00 1.655723e+01 1.347907e+02
      endloop
   endfacet
   facet normal 7.474096e-01 6.643635e-01 0.000000e+00
      outer loop
         vertex 4.583910e+00 1.655723e+01 1.347907e+02
         vertex 5.404384e+00 1.563419e+01 1.357907e+02
         vertex 5.404384e+00 1.563419e+01 1.347907e+02
      endloop
   endfacet
   facet normal -0.000000e+00 1.000000e+00 0.000000e+00
      outer loop
         vertex 5.404384e+00 1.563419e+01 1.357907e+02
         vertex 6.712014e+00 1.563419e+01 1.357907e+02
         vertex 5.404384e+00 1.563419e+01 1.347907e+02
      endloop
   endfacet
   facet normal 0.000000e+00 1.000000e+00 0.000000e+00
      outer loop
         vertex 5.404384e+00 1.563419e+01 1.347907e+02
         vertex 6.712014e+00 1.563419e+01 1.357907e+02
         vertex 6.712014e+00 1.563419e+01 1.347907e+02
      endloop
   endfacet
   facet normal 0.000000e+00 0.000000e+00 -1.000000e+00
      outer loop
         vertex 2.019929e+00 1.142927e+01 1.357907e+02
         vertex 2.019929e+00 1.232185e+01 1.357907e+02
         vertex 6.737654e+00 1.142927e+01 1.357907e+02
      endloop
   endfacet
   facet normal 0.000000e+00 0.000000e+00 -1.000000e+00
      outer loop
         vertex 6.737654e+00 1.142927e+01 1.357907e+02
         vertex 2.019929e+00 1.232185e+01 1.357907e+02
         vertex 4.816436e+00 1.232185e+01 1.357907e+02
      endloop
   endfacet
   facet normal 0.000000e+00 0.000000e+00 -1.000000e+00
      outer loop
         vertex 2.019929e+00 1.471116e+01 1.357907e+02
         vertex 2.019929e+00 1.688414e+01 1.357907e+02
         vertex 2.895219e+00 1.589943e+01 1.357907e+02
      endloop
   endfacet
   facet normal 0.000000e+00 0.000000e+00 -1.000000e+00
      outer loop
         vertex 2.895219e+00 1.589943e+01 1.357907e+02
         vertex 2.019929e+00 1.688414e+01 1.357907e+02
         vertex 3.635237e+00 1.655723e+01 1.357907e+02
      endloop
   endfacet
   facet normal 0.000000e+00 0.000000e+00 -1.000000e+00
      outer loop
         vertex 3.635237e+00 1.655723e+01 1.357907e+02
         vertex 2.019929e+00 1.688414e+01 1.357907e+02
         vertex 3.027523e+00 1.806345e+01 1.357907e+02
      endloop
   endfacet
   facet normal 0.000000e+00 0.000000e+00 -1.000000e+00
      outer loop
         vertex 3.635237e+00 1.655723e+01 1.357907e+02
         vertex 3.027523e+00 1.806345e+01 1.357907e+02
         vertex 4.583910e+00 1.655723e+01 1.357907e+02
      endloop
   endfacet
   facet normal 0.000000e+00 0.000000e+00 -1.000000e+00
      outer loop
         vertex 4.583910e+00 1.655723e+01 1.357907e+02
         vertex 3.027523e+00 1.806345e+01 1.357907e+02
         vertex 4.994147e+00 1.806345e+01 1.357907e+02
      endloop
   endfacet
   facet normal 0.000000e+00 0.000000e+00 -1.000000e+00
      outer loop
         vertex 4.583910e+00 1.655723e+01 1.357907e+02
         vertex 4.994147e+00 1.806345e+01 1.357907e+02
         vertex 5.404384e+00 1.563419e+01 1.357907e+02
      endloop
   endfacet
   facet normal 0.000000e+00 0.000000e+00 -1.000000e+00
      outer loop
         vertex 5.404384e+00 1.563419e+01 1.357907e+02
         vertex 4.994147e+00 1.806345e+01 1.357907e+02
         vertex 6.712014e+00 1.690148e+01 1.357907e+02
      endloop
   endfacet
   facet normal 0.000000e+00 0.000000e+00 -1.000000e+00
      outer loop
         vertex 5.404384e+00 1.563419e+01 1.357907e+02
         vertex 6.712014e+00 1.690148e+01 1.357907e+02
         vertex 6.712014e+00 1.563419e+01 1.357907e+02
      endloop
   endfacet
   facet normal 0.000000e+00 0.000000e+00 -1.000000e+00
      outer loop
         vertex 2.019929e+00 1.471116e+01 1.357907e+02
         vertex 2.895219e+00 1.589943e+01 1.357907e+02
         vertex 4.816436e+00 1.232185e+01 1.357907e+02
      endloop
   endfacet
   facet normal 0.000000e+00 0.000000e+00 -1.000000e+00
      outer loop
         vertex 4.816436e+00 1.232185e+01 1.357907e+02
         vertex 2.895219e+00 1.589943e+01 1.357907e+02
         vertex 6.737654e+00 1.232185e+01 1.357907e+02
      endloop
   endfacet
   facet normal 0.000000e+00 0.000000e+00 -1.000000e+00
      outer loop
         vertex 4.816436e+00 1.232185e+01 1.357907e+02
         vertex 6.737654e+00 1.232185e+01 1.357907e+02
         vertex 6.737654e+00 1.142927e+01 1.357907e+02
      endloop
   endfacet
endsolid front_logic_lens_round_sanding_guide_2